<?xml version="1.0" encoding="UTF-8" standalone="no"?>
<!DOCTYPE svg  PUBLIC '-//W3C//DTD SVG 1.1//EN'  'http://www.w3.org/Graphics/SVG/1.1/DTD/svg11.dtd'>
<svg version="1.1" xmlns="http://www.w3.org/2000/svg">
<defs>
<font id="Telegrama-Raw" horiz-adv-x="667">
<font-face font-family="Telegrama" unicode-range="U+0020-00FE" ascent="778" x-height="556" descent="-222" units-per-em="1000" panose-1="2 0 5 6 2 0 0 2 0 4" font-weight="400" underline-position="-133" cap-height="778" bbox="56 -222 667 1000" underline-thickness="22"/>
<missing-glyph/>
<glyph glyph-name="space" unicode=" "/>
<glyph d="M389 250q0 -12 -8 -20t-20 -8h-55q-12 0 -20 8t-8 20v500q0 12 8 20t20 8h55q12 0 20 -8t8 -20v-500zM389 28q0 -12 -8 -20t-20 -8h-55q-12 0 -20 8t-8 20v55q0 12 8 20t20 8h55q12 0 20 -8t8 -20v-55z" glyph-name="exclam" unicode="!"/>
<glyph d="M500 472q0 -11 -8 -19.5t-20 -8.5h-55q-12 0 -20 8.5t-8 19.5v278q0 12 8 20t20 8h55q12 0 20 -8t8 -20v-278zM278 472q0 -11 -8 -19.5t-20 -8.5h-56q-11 0 -19 8.5t-8 19.5v278q0 12 8 20t19 8h56q12 0 20 -8t8 -20v-278z" glyph-name="quotedbl" unicode='&quot;'/>
<glyph d="M611 250q0 -12 -8 -20t-20 -8h-83v-83q0 -12 -8 -20t-20 -8h-55q-12 0 -20 8t-8 20v83h-111v-83q0 -12 -8 -20t-20 -8h-56q-11 0 -19 8t-8 20v83h-84q-11 0 -19 8t-8 20v56q0 11 8 19t19 8h84v223h-84q-11 0 -19 8t-8 19v56q0 11 8 19.5t19 8.5h84v83q0 12 8 20t19 8h56 q12 0 20 -8t8 -20v-83h111v83q0 12 8 20t20 8h55q12 0 20 -8t8 -20v-83h83q12 0 20 -8.5t8 -19.5v-56q0 -11 -8 -19t-20 -8h-83v-223h83q12 0 20 -8t8 -19v-56zM389 333v223h-111v-223h111z" glyph-name="numbersign" unicode="#"/>
<glyph d="M611 250q0 -12 -8 -20t-20 -8h-55q-12 0 -20 8t-8 20v56q0 11 8 19t20 8h55q12 0 20 -8t8 -19v-56zM611 583q0 -11 -8 -19t-20 -8h-194v-112h83q12 0 20 -8t8 -19v-56q0 -11 -8 -19.5t-20 -8.5h-83v-111h83q12 0 20 -8t8 -20v-55q0 -12 -8 -20t-20 -8h-83v-83 q0 -12 -8 -20t-20 -8h-55q-12 0 -20 8t-8 20v83h-195q-11 0 -19 8t-8 20v55q0 12 8 20t19 8h195v111h-84q-11 0 -19 8.5t-8 19.5v56q0 11 8 19t19 8h84v112h-84q-11 0 -19 8t-8 19v56q0 11 8 19.5t19 8.5h84v83q0 12 8 20t20 8h55q12 0 20 -8t8 -20v-83h194q12 0 20 -8.5 t8 -19.5v-56zM167 472q0 -11 -8.5 -19.5t-19.5 -8.5h-56q-11 0 -19 8.5t-8 19.5v56q0 11 8 19.5t19 8.5h56q11 0 19.5 -8.5t8.5 -19.5v-56z" glyph-name="dollar" unicode="$"/>
<glyph d="M611 583q0 -11 -8 -19t-20 -8h-55q-12 0 -20 8t-8 19v56q0 11 8 19.5t20 8.5h55q12 0 20 -8.5t8 -19.5v-56zM500 472q0 -11 -8 -19.5t-20 -8.5h-55q-12 0 -20 8.5t-8 19.5v56q0 11 8 19.5t20 8.5h55q12 0 20 -8.5t8 -19.5v-56zM278 583q0 -11 -8 -19t-20 -8h-167 q-11 0 -19 8t-8 19v167q0 12 8 20t19 8h167q12 0 20 -8t8 -20v-167zM389 361q0 -11 -8 -19.5t-20 -8.5h-55q-12 0 -20 8.5t-8 19.5v56q0 11 8 19t20 8h55q12 0 20 -8t8 -19v-56zM611 28q0 -12 -8 -20t-20 -8h-166q-12 0 -20 8t-8 20v166q0 12 8 20t20 8h166q12 0 20 -8 t8 -20v-166zM278 250q0 -12 -8 -20t-20 -8h-56q-11 0 -19 8t-8 20v56q0 11 8 19t19 8h56q12 0 20 -8t8 -19v-56zM167 139q0 -12 -8.5 -20t-19.5 -8h-56q-11 0 -19 8t-8 20v55q0 12 8 20t19 8h56q11 0 19.5 -8t8.5 -20v-55z" glyph-name="percent" unicode="%"/>
<glyph d="M500 583q0 -11 -8 -19t-20 -8h-55q-12 0 -20 8t-8 19v56q0 11 8 19.5t20 8.5h55q12 0 20 -8.5t8 -19.5v-56zM389 694q0 -11 -8 -19t-20 -8h-167q-11 0 -19 8t-8 19v56q0 12 8 20t19 8h167q12 0 20 -8t8 -20v-56zM611 250q0 -12 -8 -20t-20 -8h-55q-12 0 -20 8t-8 20v167 q0 11 8 19t20 8h55q12 0 20 -8t8 -19v-167zM389 472q0 -11 -8 -19.5t-20 -8.5h-55q-12 0 -20 8.5t-8 19.5v56q0 11 8 19.5t20 8.5h55q12 0 20 -8.5t8 -19.5v-56zM167 472q0 -11 -8.5 -19.5t-19.5 -8.5h-56q-11 0 -19 8.5t-8 19.5v167q0 11 8 19.5t19 8.5h56q11 0 19.5 -8.5 t8.5 -19.5v-167zM389 250q0 -12 -8 -20t-20 -8h-55q-12 0 -20 8t-8 20v56q0 11 8 19t20 8h55q12 0 20 -8t8 -19v-56zM500 139q0 -12 -8 -20t-20 -8h-55q-12 0 -20 8t-8 20v55q0 12 8 20t20 8h55q12 0 20 -8t8 -20v-55zM611 28q0 -12 -8 -20t-20 -8h-55q-12 0 -20 8t-8 20v55 q0 12 8 20t20 8h55q12 0 20 -8t8 -20v-55zM278 361q0 -11 -8 -19.5t-20 -8.5h-56q-11 0 -19 8.5t-8 19.5v56q0 11 8 19t19 8h56q12 0 20 -8t8 -19v-56zM389 28q0 -12 -8 -20t-20 -8h-167q-11 0 -19 8t-8 20v55q0 12 8 20t19 8h167q12 0 20 -8t8 -20v-55zM167 139 q0 -12 -8.5 -20t-19.5 -8h-56q-11 0 -19 8t-8 20v167q0 11 8 19t19 8h56q11 0 19.5 -8t8.5 -19v-167z" glyph-name="ampersand" unicode="&amp;"/>
<glyph d="M389 472q0 -11 -8 -19.5t-20 -8.5h-55q-12 0 -20 8.5t-8 19.5v278q0 12 8 20t20 8h55q12 0 20 -8t8 -20v-278z" glyph-name="quotesingle" unicode="&apos;"/>
<glyph d="M611 694q0 -11 -8 -19t-20 -8h-166q-12 0 -20 8t-8 19v56q0 12 8 20t20 8h166q12 0 20 -8t8 -20v-56zM389 583q0 -11 -8 -19t-20 -8h-55q-12 0 -20 8t-8 19v56q0 11 8 19.5t20 8.5h55q12 0 20 -8.5t8 -19.5v-56zM278 250q0 -12 -8 -20t-20 -8h-56q-11 0 -19 8t-8 20v278 q0 11 8 19.5t19 8.5h56q12 0 20 -8.5t8 -19.5v-278zM611 28q0 -12 -8 -20t-20 -8h-162q-11 0 -19.5 8t-8.5 20v55q0 12 8.5 20t19.5 8h162q12 0 20 -8t8 -20v-55zM389 139q0 -12 -8 -20t-20 -8h-55q-12 0 -20 8t-8 20v55q0 12 8 20t20 8h55q12 0 20 -8t8 -20v-55z" glyph-name="parenleft" unicode="("/>
<glyph d="M500 583q0 -11 -8 -19t-20 -8h-55q-12 0 -20 8t-8 19v56q0 11 8 19.5t20 8.5h55q12 0 20 -8.5t8 -19.5v-56zM389 694q0 -11 -8 -19t-20 -8h-167q-11 0 -19 8t-8 19v56q0 12 8 20t19 8h167q12 0 20 -8t8 -20v-56zM611 250q0 -12 -8 -20t-20 -8h-55q-12 0 -20 8t-8 20v278 q0 11 8 19.5t20 8.5h55q12 0 20 -8.5t8 -19.5v-278zM500 139q0 -12 -8 -20t-20 -8h-55q-12 0 -20 8t-8 20v55q0 12 8 20t20 8h55q12 0 20 -8t8 -20v-55zM384 28q0 -12 -8 -20t-19 -8h-163q-11 0 -19 8t-8 20v55q0 12 8 20t19 8h163q11 0 19 -8t8 -20v-55z" glyph-name="parenright" unicode=")"/>
<glyph d="M611 583q0 -11 -8 -19t-20 -8h-55q-12 0 -20 8t-8 19v56q0 11 8 19.5t20 8.5h55q12 0 20 -8.5t8 -19.5v-56zM167 583q0 -11 -8.5 -19t-19.5 -8h-56q-11 0 -19 8t-8 19v56q0 11 8 19.5t19 8.5h56q11 0 19.5 -8.5t8.5 -19.5v-56zM611 361q0 -11 -8 -19.5t-20 -8.5h-83v-83 q0 -12 -8 -20t-20 -8h-55q-12 0 -20 8t-8 20v83h-111v-83q0 -12 -8 -20t-20 -8h-56q-11 0 -19 8t-8 20v83h-84q-11 0 -19 8.5t-8 19.5v56q0 11 8 19t19 8h84v84q0 11 8 19.5t19 8.5h56q12 0 20 -8.5t8 -19.5v-84h111v84q0 11 8 19.5t20 8.5h55q12 0 20 -8.5t8 -19.5v-84h83 q12 0 20 -8t8 -19v-56zM611 139q0 -12 -8 -20t-20 -8h-55q-12 0 -20 8t-8 20v55q0 12 8 20t20 8h55q12 0 20 -8t8 -20v-55zM167 139q0 -12 -8.5 -20t-19.5 -8h-56q-11 0 -19 8t-8 20v55q0 12 8 20t19 8h56q11 0 19.5 -8t8.5 -20v-55z" glyph-name="asterisk" unicode="*"/>
<glyph d="M611 361q0 -11 -8 -19.5t-20 -8.5h-194v-194q0 -12 -8 -20t-20 -8h-55q-12 0 -20 8t-8 20v194h-195q-11 0 -19 8.5t-8 19.5v56q0 11 8 19t19 8h195v195q0 11 8 19.5t20 8.5h55q12 0 20 -8.5t8 -19.5v-195h194q12 0 20 -8t8 -19v-56z" glyph-name="plus" unicode="+"/>
<glyph d="M389 -83q0 -12 -8 -20t-20 -8h-55q-12 0 -20 8t-8 20v83h-84q-11 0 -19 8t-8 20v166q0 12 8 20t19 8h167q12 0 20 -8t8 -20v-277zM278 -194q0 -12 -8 -20t-20 -8h-56q-11 0 -19 8t-8 20v55q0 12 8 20t19 8h56q12 0 20 -8t8 -20v-55z" glyph-name="comma" unicode=","/>
<glyph d="M611 250q0 -12 -8 -20t-20 -8h-500q-11 0 -19 8t-8 20v56q0 11 8 19t19 8h500q12 0 20 -8t8 -19v-56z" glyph-name="hyphen" unicode="-"/>
<glyph d="M389 28q0 -12 -8 -20t-20 -8h-167q-11 0 -19 8t-8 20v166q0 12 8 20t19 8h167q12 0 20 -8t8 -20v-166z" glyph-name="period" unicode="."/>
<glyph d="M611 583q0 -11 -8 -19t-20 -8h-55q-12 0 -20 8t-8 19v167q0 12 8 20t20 8h55q12 0 20 -8t8 -20v-167zM500 472q0 -11 -8 -19.5t-20 -8.5h-55q-12 0 -20 8.5t-8 19.5v56q0 11 8 19.5t20 8.5h55q12 0 20 -8.5t8 -19.5v-56zM389 361q0 -11 -8 -19.5t-20 -8.5h-55 q-12 0 -20 8.5t-8 19.5v56q0 11 8 19t20 8h55q12 0 20 -8t8 -19v-56zM278 250q0 -12 -8 -20t-20 -8h-56q-11 0 -19 8t-8 20v56q0 11 8 19t19 8h56q12 0 20 -8t8 -19v-56zM167 28q0 -12 -8.5 -20t-19.5 -8h-56q-11 0 -19 8t-8 20v166q0 12 8 20t19 8h56q11 0 19.5 -8t8.5 -20 v-166z" glyph-name="slash" unicode="/"/>
<glyph d="M500 694q0 -11 -8 -19t-20 -8h-278q-11 0 -19 8t-8 19v56q0 12 8 20t19 8h278q12 0 20 -8t8 -20v-56zM611 139q0 -12 -8 -20t-20 -8h-55q-12 0 -20 8t-8 20v305h-83q-12 0 -20 8.5t-8 19.5v56q0 11 8 19.5t20 8.5h83v83q0 11 8 19.5t20 8.5h55q12 0 20 -8.5t8 -19.5v-500 zM389 361q0 -11 -8 -19.5t-20 -8.5h-55q-12 0 -20 8.5t-8 19.5v56q0 11 8 19t20 8h55q12 0 20 -8t8 -19v-56zM278 250q0 -12 -8 -20t-20 -8h-83v-83q0 -12 -8.5 -20t-19.5 -8h-56q-11 0 -19 8t-8 20v500q0 11 8 19.5t19 8.5h56q11 0 19.5 -8.5t8.5 -19.5v-306h83q12 0 20 -8 t8 -19v-56zM500 28q0 -12 -8 -20t-20 -8h-278q-11 0 -19 8t-8 20v55q0 12 8 20t19 8h278q12 0 20 -8t8 -20v-55z" glyph-name="zero" unicode="0"/>
<glyph d="M611 28q0 -12 -8 -20t-20 -8h-500q-11 0 -19 8t-8 20v55q0 12 8 20t19 8h195v445h-84q-11 0 -19 8t-8 19v56q0 11 8 19.5t19 8.5h84v83q0 12 8 20t20 8h55q12 0 20 -8t8 -20v-639h194q12 0 20 -8t8 -20v-55zM167 472q0 -11 -8.5 -19.5t-19.5 -8.5h-56q-11 0 -19 8.5 t-8 19.5v56q0 11 8 19.5t19 8.5h56q11 0 19.5 -8.5t8.5 -19.5v-56z" glyph-name="one" unicode="1"/>
<glyph d="M611 472q0 -11 -8 -19.5t-20 -8.5h-55q-12 0 -20 8.5t-8 19.5v167q0 11 8 19.5t20 8.5h55q12 0 20 -8.5t8 -19.5v-167zM500 694q0 -11 -8 -19t-20 -8h-278q-11 0 -19 8t-8 19v56q0 12 8 20t19 8h278q12 0 20 -8t8 -20v-56zM500 361q0 -11 -8 -19.5t-20 -8.5h-55 q-12 0 -20 8.5t-8 19.5v56q0 11 8 19t20 8h55q12 0 20 -8t8 -19v-56zM167 583q0 -11 -8.5 -19t-19.5 -8h-56q-11 0 -19 8t-8 19v56q0 11 8 19.5t19 8.5h56q11 0 19.5 -8.5t8.5 -19.5v-56zM389 250q0 -12 -8 -20t-20 -8h-55q-12 0 -20 8t-8 20v56q0 11 8 19t20 8h55 q12 0 20 -8t8 -19v-56zM611 28q0 -12 -8 -20t-20 -8h-500q-11 0 -19 8t-8 20v55q0 12 8 20t19 8h84v83q0 12 8 20t19 8h56q12 0 20 -8t8 -20v-83h305q12 0 20 -8t8 -20v-55z" glyph-name="two" unicode="2"/>
<glyph d="M611 694q0 -11 -8 -19t-20 -8h-83v-84q0 -11 -8 -19t-20 -8h-55q-12 0 -20 8t-8 19v84h-306q-11 0 -19 8t-8 19v56q0 12 8 20t19 8h500q12 0 20 -8t8 -20v-56zM611 139q0 -12 -8 -20t-20 -8h-55q-12 0 -20 8t-8 20v167q0 11 8 19t20 8h55q12 0 20 -8t8 -19v-167zM500 361 q0 -11 -8 -19.5t-20 -8.5h-278q-11 0 -19 8.5t-8 19.5v56q0 11 8 19t19 8h84v84q0 11 8 19.5t20 8.5h55q12 0 20 -8.5t8 -19.5v-84h83q12 0 20 -8t8 -19v-56zM500 28q0 -12 -8 -20t-20 -8h-278q-11 0 -19 8t-8 20v55q0 12 8 20t19 8h278q12 0 20 -8t8 -20v-55zM167 139 q0 -12 -8.5 -20t-19.5 -8h-56q-11 0 -19 8t-8 20v55q0 12 8 20t19 8h56q11 0 19.5 -8t8.5 -20v-55z" glyph-name="three" unicode="3"/>
<glyph d="M278 472q0 -11 -8 -19.5t-20 -8.5h-56q-11 0 -19 8.5t-8 19.5v56q0 11 8 19.5t19 8.5h56q12 0 20 -8.5t8 -19.5v-56zM611 250q0 -12 -8 -20t-20 -8h-83v-194q0 -12 -8 -20t-20 -8h-55q-12 0 -20 8t-8 20v194h-306q-11 0 -19 8t-8 20v167q0 11 8 19t19 8h56q11 0 19.5 -8 t8.5 -19v-84h222v223h-83q-12 0 -20 8t-8 19v56q0 11 8 19.5t20 8.5h83v83q0 12 8 20t20 8h55q12 0 20 -8t8 -20v-417h83q12 0 20 -8t8 -19v-56z" glyph-name="four" unicode="4"/>
<glyph d="M611 694q0 -11 -8 -19t-20 -8h-416v-223h305q12 0 20 -8t8 -19v-56q0 -11 -8 -19.5t-20 -8.5h-389q-11 0 -19 8.5t-8 19.5v389q0 12 8 20t19 8h500q12 0 20 -8t8 -20v-56zM611 139q0 -12 -8 -20t-20 -8h-55q-12 0 -20 8t-8 20v167q0 11 8 19t20 8h55q12 0 20 -8t8 -19 v-167zM500 28q0 -12 -8 -20t-20 -8h-278q-11 0 -19 8t-8 20v55q0 12 8 20t19 8h278q12 0 20 -8t8 -20v-55zM167 139q0 -12 -8.5 -20t-19.5 -8h-56q-11 0 -19 8t-8 20v55q0 12 8 20t19 8h56q11 0 19.5 -8t8.5 -20v-55z" glyph-name="five" unicode="5"/>
<glyph d="M611 583q0 -11 -8 -19t-20 -8h-55q-12 0 -20 8t-8 19v56q0 11 8 19.5t20 8.5h55q12 0 20 -8.5t8 -19.5v-56zM500 694q0 -11 -8 -19t-20 -8h-278q-11 0 -19 8t-8 19v56q0 12 8 20t19 8h278q12 0 20 -8t8 -20v-56zM611 139q0 -12 -8 -20t-20 -8h-55q-12 0 -20 8t-8 20v167 q0 11 8 19t20 8h55q12 0 20 -8t8 -19v-167zM500 361q0 -11 -8 -19.5t-20 -8.5h-305v-194q0 -12 -8.5 -20t-19.5 -8h-56q-11 0 -19 8t-8 20v500q0 11 8 19.5t19 8.5h56q11 0 19.5 -8.5t8.5 -19.5v-195h305q12 0 20 -8t8 -19v-56zM500 28q0 -12 -8 -20t-20 -8h-278 q-11 0 -19 8t-8 20v55q0 12 8 20t19 8h278q12 0 20 -8t8 -20v-55z" glyph-name="six" unicode="6"/>
<glyph d="M611 583q0 -11 -8 -19t-20 -8h-55q-12 0 -20 8t-8 19v84h-417q-11 0 -19 8t-8 19v56q0 12 8 20t19 8h500q12 0 20 -8t8 -20v-167zM500 472q0 -11 -8 -19.5t-20 -8.5h-55q-12 0 -20 8.5t-8 19.5v56q0 11 8 19.5t20 8.5h55q12 0 20 -8.5t8 -19.5v-56zM389 28q0 -12 -8 -20 t-20 -8h-55q-12 0 -20 8t-8 20v389q0 11 8 19t20 8h55q12 0 20 -8t8 -19v-389z" glyph-name="seven" unicode="7"/>
<glyph d="M611 472q0 -11 -8 -19.5t-20 -8.5h-55q-12 0 -20 8.5t-8 19.5v167q0 11 8 19.5t20 8.5h55q12 0 20 -8.5t8 -19.5v-167zM500 694q0 -11 -8 -19t-20 -8h-278q-11 0 -19 8t-8 19v56q0 12 8 20t19 8h278q12 0 20 -8t8 -20v-56zM611 139q0 -12 -8 -20t-20 -8h-55q-12 0 -20 8 t-8 20v167q0 11 8 19t20 8h55q12 0 20 -8t8 -19v-167zM500 361q0 -11 -8 -19.5t-20 -8.5h-278q-11 0 -19 8.5t-8 19.5v56q0 11 8 19t19 8h278q12 0 20 -8t8 -19v-56zM167 472q0 -11 -8.5 -19.5t-19.5 -8.5h-56q-11 0 -19 8.5t-8 19.5v167q0 11 8 19.5t19 8.5h56 q11 0 19.5 -8.5t8.5 -19.5v-167zM500 28q0 -12 -8 -20t-20 -8h-278q-11 0 -19 8t-8 20v55q0 12 8 20t19 8h278q12 0 20 -8t8 -20v-55zM167 139q0 -12 -8.5 -20t-19.5 -8h-56q-11 0 -19 8t-8 20v167q0 11 8 19t19 8h56q11 0 19.5 -8t8.5 -19v-167z" glyph-name="eight" unicode="8"/>
<glyph d="M500 694q0 -11 -8 -19t-20 -8h-278q-11 0 -19 8t-8 19v56q0 12 8 20t19 8h278q12 0 20 -8t8 -20v-56zM611 139q0 -12 -8 -20t-20 -8h-55q-12 0 -20 8t-8 20v194h-306q-11 0 -19 8.5t-8 19.5v56q0 11 8 19t19 8h306v195q0 11 8 19.5t20 8.5h55q12 0 20 -8.5t8 -19.5v-500z M167 472q0 -11 -8.5 -19.5t-19.5 -8.5h-56q-11 0 -19 8.5t-8 19.5v167q0 11 8 19.5t19 8.5h56q11 0 19.5 -8.5t8.5 -19.5v-167zM500 28q0 -12 -8 -20t-20 -8h-278q-11 0 -19 8t-8 20v55q0 12 8 20t19 8h278q12 0 20 -8t8 -20v-55zM167 139q0 -12 -8.5 -20t-19.5 -8h-56 q-11 0 -19 8t-8 20v55q0 12 8 20t19 8h56q11 0 19.5 -8t8.5 -20v-55z" glyph-name="nine" unicode="9"/>
<glyph d="M389 361q0 -11 -8 -19.5t-20 -8.5h-167q-11 0 -19 8.5t-8 19.5v167q0 11 8 19.5t19 8.5h167q12 0 20 -8.5t8 -19.5v-167zM389 28q0 -12 -8 -20t-20 -8h-167q-11 0 -19 8t-8 20v166q0 12 8 20t19 8h167q12 0 20 -8t8 -20v-166z" glyph-name="colon" unicode=":"/>
<glyph d="M389 361q0 -11 -8 -19.5t-20 -8.5h-167q-11 0 -19 8.5t-8 19.5v167q0 11 8 19.5t19 8.5h167q12 0 20 -8.5t8 -19.5v-167zM389 -83q0 -12 -8 -20t-20 -8h-55q-12 0 -20 8t-8 20v83h-84q-11 0 -19 8t-8 20v166q0 12 8 20t19 8h167q12 0 20 -8t8 -20v-277zM278 -194 q0 -12 -8 -20t-20 -8h-56q-11 0 -19 8t-8 20v55q0 12 8 20t19 8h56q12 0 20 -8t8 -20v-55z" glyph-name="semicolon" unicode=";"/>
<glyph d="M611 694q0 -11 -8 -19t-20 -8h-55q-12 0 -20 8t-8 19v56q0 12 8 20t20 8h55q12 0 20 -8t8 -20v-56zM500 583q0 -11 -8 -19t-20 -8h-55q-12 0 -20 8t-8 19v56q0 11 8 19.5t20 8.5h55q12 0 20 -8.5t8 -19.5v-56zM389 472q0 -11 -8 -19.5t-20 -8.5h-55q-12 0 -20 8.5 t-8 19.5v56q0 11 8 19.5t20 8.5h55q12 0 20 -8.5t8 -19.5v-56zM278 361q0 -11 -8 -19.5t-20 -8.5h-56q-11 0 -19 8.5t-8 19.5v56q0 11 8 19t19 8h56q12 0 20 -8t8 -19v-56zM389 250q0 -12 -8 -20t-20 -8h-55q-12 0 -20 8t-8 20v56q0 11 8 19t20 8h55q12 0 20 -8t8 -19v-56z M611 28q0 -12 -8 -20t-20 -8h-55q-12 0 -20 8t-8 20v55q0 12 8 20t20 8h55q12 0 20 -8t8 -20v-55zM500 139q0 -12 -8 -20t-20 -8h-55q-12 0 -20 8t-8 20v55q0 12 8 20t20 8h55q12 0 20 -8t8 -20v-55z" glyph-name="less" unicode="&lt;"/>
<glyph d="M611 361q0 -11 -8 -19.5t-20 -8.5h-500q-11 0 -19 8.5t-8 19.5v56q0 11 8 19t19 8h500q12 0 20 -8t8 -19v-56zM611 139q0 -12 -8 -20t-20 -8h-500q-11 0 -19 8t-8 20v55q0 12 8 20t19 8h500q12 0 20 -8t8 -20v-55z" glyph-name="equal" unicode="="/>
<glyph d="M278 583q0 -11 -8 -19t-20 -8h-56q-11 0 -19 8t-8 19v56q0 11 8 19.5t19 8.5h56q12 0 20 -8.5t8 -19.5v-56zM389 472q0 -11 -8 -19.5t-20 -8.5h-55q-12 0 -20 8.5t-8 19.5v56q0 11 8 19.5t20 8.5h55q12 0 20 -8.5t8 -19.5v-56zM500 361q0 -11 -8 -19.5t-20 -8.5h-55 q-12 0 -20 8.5t-8 19.5v56q0 11 8 19t20 8h55q12 0 20 -8t8 -19v-56zM167 694q0 -11 -8.5 -19t-19.5 -8h-56q-11 0 -19 8t-8 19v56q0 12 8 20t19 8h56q11 0 19.5 -8t8.5 -20v-56zM389 250q0 -12 -8 -20t-20 -8h-55q-12 0 -20 8t-8 20v56q0 11 8 19t20 8h55q12 0 20 -8t8 -19 v-56zM278 139q0 -12 -8 -20t-20 -8h-56q-11 0 -19 8t-8 20v55q0 12 8 20t19 8h56q12 0 20 -8t8 -20v-55zM167 28q0 -12 -8.5 -20t-19.5 -8h-56q-11 0 -19 8t-8 20v55q0 12 8 20t19 8h56q11 0 19.5 -8t8.5 -20v-55z" glyph-name="greater" unicode="&gt;"/>
<glyph d="M611 472q0 -11 -8 -19.5t-20 -8.5h-55q-12 0 -20 8.5t-8 19.5v167q0 11 8 19.5t20 8.5h55q12 0 20 -8.5t8 -19.5v-167zM500 694q0 -11 -8 -19t-20 -8h-278q-11 0 -19 8t-8 19v56q0 12 8 20t19 8h278q12 0 20 -8t8 -20v-56zM500 361q0 -11 -8 -19.5t-20 -8.5h-55 q-12 0 -20 8.5t-8 19.5v56q0 11 8 19t20 8h55q12 0 20 -8t8 -19v-56zM167 583q0 -11 -8.5 -19t-19.5 -8h-56q-11 0 -19 8t-8 19v56q0 11 8 19.5t19 8.5h56q11 0 19.5 -8.5t8.5 -19.5v-56zM389 250q0 -12 -8 -20t-20 -8h-55q-12 0 -20 8t-8 20v56q0 11 8 19t20 8h55 q12 0 20 -8t8 -19v-56zM389 28q0 -12 -8 -20t-20 -8h-55q-12 0 -20 8t-8 20v55q0 12 8 20t20 8h55q12 0 20 -8t8 -20v-55z" glyph-name="question" unicode="?"/>
<glyph d="M500 694q0 -11 -8 -19t-20 -8h-278q-11 0 -19 8t-8 19v56q0 12 8 20t19 8h278q12 0 20 -8t8 -20v-56zM611 139q0 -12 -8 -20t-20 -8h-55q-12 0 -20 8t-8 20v500q0 11 8 19.5t20 8.5h55q12 0 20 -8.5t8 -19.5v-500zM167 583q0 -11 -8.5 -19t-19.5 -8h-56q-11 0 -19 8 t-8 19v56q0 11 8 19.5t19 8.5h56q11 0 19.5 -8.5t8.5 -19.5v-56zM389 139q0 -12 -8 -20t-20 -8h-55q-12 0 -20 8t-8 20v194h-84q-11 0 -19 8.5t-8 19.5v56q0 11 8 19t19 8h167q12 0 20 -8t8 -19v-278zM500 28q0 -12 -8 -20t-20 -8h-55q-12 0 -20 8t-8 20v55q0 12 8 20t20 8 h55q12 0 20 -8t8 -20v-55zM167 139q0 -12 -8.5 -20t-19.5 -8h-56q-11 0 -19 8t-8 20v167q0 11 8 19t19 8h56q11 0 19.5 -8t8.5 -19v-167zM278 28q0 -12 -8 -20t-20 -8h-56q-11 0 -19 8t-8 20v55q0 12 8 20t19 8h56q12 0 20 -8t8 -20v-55z" glyph-name="at" unicode="@"/>
<glyph d="M500 694q0 -11 -8 -19t-20 -8h-278q-11 0 -19 8t-8 19v56q0 12 8 20t19 8h278q12 0 20 -8t8 -20v-56zM611 28q0 -12 -8 -20t-20 -8h-55q-12 0 -20 8t-8 20v305h-333v-305q0 -12 -8.5 -20t-19.5 -8h-56q-11 0 -19 8t-8 20v611q0 11 8 19.5t19 8.5h56q11 0 19.5 -8.5 t8.5 -19.5v-195h333v195q0 11 8 19.5t20 8.5h55q12 0 20 -8.5t8 -19.5v-611z" glyph-name="A" unicode="A"/>
<glyph d="M611 472q0 -11 -8 -19.5t-20 -8.5h-55q-12 0 -20 8.5t-8 19.5v167q0 11 8 19.5t20 8.5h55q12 0 20 -8.5t8 -19.5v-167zM611 139q0 -12 -8 -20t-20 -8h-55q-12 0 -20 8t-8 20v167q0 11 8 19t20 8h55q12 0 20 -8t8 -19v-167zM500 28q0 -12 -8 -20t-20 -8h-389q-11 0 -19 8 t-8 20v722q0 12 8 20t19 8h389q12 0 20 -8t8 -20v-56q0 -11 -8 -19t-20 -8h-305v-223h305q12 0 20 -8t8 -19v-56q0 -11 -8 -19.5t-20 -8.5h-305v-222h305q12 0 20 -8t8 -20v-55z" glyph-name="B" unicode="B"/>
<glyph d="M611 583q0 -11 -8 -19t-20 -8h-55q-12 0 -20 8t-8 19v56q0 11 8 19.5t20 8.5h55q12 0 20 -8.5t8 -19.5v-56zM500 694q0 -11 -8 -19t-20 -8h-278q-11 0 -19 8t-8 19v56q0 12 8 20t19 8h278q12 0 20 -8t8 -20v-56zM611 139q0 -12 -8 -20t-20 -8h-55q-12 0 -20 8t-8 20v55 q0 12 8 20t20 8h55q12 0 20 -8t8 -20v-55zM167 139q0 -12 -8.5 -20t-19.5 -8h-56q-11 0 -19 8t-8 20v500q0 11 8 19.5t19 8.5h56q11 0 19.5 -8.5t8.5 -19.5v-500zM500 28q0 -12 -8 -20t-20 -8h-278q-11 0 -19 8t-8 20v55q0 12 8 20t19 8h278q12 0 20 -8t8 -20v-55z" glyph-name="C" unicode="C"/>
<glyph d="M611 139q0 -12 -8 -20t-20 -8h-55q-12 0 -20 8t-8 20v500q0 11 8 19.5t20 8.5h55q12 0 20 -8.5t8 -19.5v-500zM500 28q0 -12 -8 -20t-20 -8h-389q-11 0 -19 8t-8 20v722q0 12 8 20t19 8h389q12 0 20 -8t8 -20v-56q0 -11 -8 -19t-20 -8h-305v-556h305q12 0 20 -8t8 -20 v-55z" glyph-name="D" unicode="D"/>
<glyph d="M611 28q0 -12 -8 -20t-20 -8h-500q-11 0 -19 8t-8 20v722q0 12 8 20t19 8h500q12 0 20 -8t8 -20v-56q0 -11 -8 -19t-20 -8h-416v-223h305q12 0 20 -8t8 -19v-56q0 -11 -8 -19.5t-20 -8.5h-305v-222h416q12 0 20 -8t8 -20v-55z" glyph-name="E" unicode="E"/>
<glyph d="M611 694q0 -11 -8 -19t-20 -8h-416v-223h305q12 0 20 -8t8 -19v-56q0 -11 -8 -19.5t-20 -8.5h-305v-305q0 -12 -8.5 -20t-19.5 -8h-56q-11 0 -19 8t-8 20v722q0 12 8 20t19 8h500q12 0 20 -8t8 -20v-56z" glyph-name="F" unicode="F"/>
<glyph d="M611 583q0 -11 -8 -19t-20 -8h-55q-12 0 -20 8t-8 19v56q0 11 8 19.5t20 8.5h55q12 0 20 -8.5t8 -19.5v-56zM500 694q0 -11 -8 -19t-20 -8h-282q-12 0 -20 8t-8 19v56q0 12 8 20t20 8h282q12 0 20 -8t8 -20v-56zM611 139q0 -12 -8 -20t-20 -8h-55q-12 0 -20 8t-8 20v194 h-194q-12 0 -20 8.5t-8 19.5v56q0 11 8 19t20 8h277q12 0 20 -8t8 -19v-278zM167 139q0 -12 -8.5 -20t-19.5 -8h-56q-11 0 -19 8t-8 20v500q0 11 8 19.5t19 8.5h56q11 0 19.5 -8.5t8.5 -19.5v-500zM500 28q0 -12 -8 -20t-20 -8h-282q-12 0 -20 8t-8 20v55q0 12 8 20t20 8 h282q12 0 20 -8t8 -20v-55z" glyph-name="G" unicode="G"/>
<glyph d="M611 28q0 -12 -8 -20t-20 -8h-55q-12 0 -20 8t-8 20v305h-333v-305q0 -12 -8.5 -20t-19.5 -8h-56q-11 0 -19 8t-8 20v722q0 12 8 20t19 8h56q11 0 19.5 -8t8.5 -20v-306h333v306q0 12 8 20t20 8h55q12 0 20 -8t8 -20v-722z" glyph-name="H" unicode="H"/>
<glyph d="M611 28q0 -12 -8 -20t-20 -8h-500q-11 0 -19 8t-8 20v55q0 12 8 20t19 8h195v556h-84q-11 0 -19 8t-8 19v56q0 12 8 20t19 8h278q12 0 20 -8t8 -20v-56q0 -11 -8 -19t-20 -8h-83v-556h194q12 0 20 -8t8 -20v-55z" glyph-name="I" unicode="I"/>
<glyph d="M611 139q0 -12 -8 -20t-20 -8h-55q-12 0 -20 8t-8 20v611q0 12 8 20t20 8h55q12 0 20 -8t8 -20v-611zM500 28q0 -12 -8 -20t-20 -8h-278q-11 0 -19 8t-8 20v55q0 12 8 20t19 8h278q12 0 20 -8t8 -20v-55zM167 139q0 -12 -8.5 -20t-19.5 -8h-56q-11 0 -19 8t-8 20v55 q0 12 8 20t19 8h56q11 0 19.5 -8t8.5 -20v-55z" glyph-name="J" unicode="J"/>
<glyph d="M611 694q0 -11 -8 -19t-20 -8h-55q-12 0 -20 8t-8 19v56q0 12 8 20t20 8h55q12 0 20 -8t8 -20v-56zM500 583q0 -11 -8 -19t-20 -8h-55q-12 0 -20 8t-8 19v56q0 11 8 19.5t20 8.5h55q12 0 20 -8.5t8 -19.5v-56zM389 472q0 -11 -8 -19.5t-20 -8.5h-55q-12 0 -20 8.5 t-8 19.5v56q0 11 8 19.5t20 8.5h55q12 0 20 -8.5t8 -19.5v-56zM389 250q0 -12 -8 -20t-20 -8h-55q-12 0 -20 8t-8 20v56q0 11 8 19t20 8h55q12 0 20 -8t8 -19v-56zM500 139q0 -12 -8 -20t-20 -8h-55q-12 0 -20 8t-8 20v55q0 12 8 20t20 8h55q12 0 20 -8t8 -20v-55zM611 28 q0 -12 -8 -20t-20 -8h-55q-12 0 -20 8t-8 20v55q0 12 8 20t20 8h55q12 0 20 -8t8 -20v-55zM278 361q0 -11 -8 -19.5t-20 -8.5h-83v-305q0 -12 -8.5 -20t-19.5 -8h-56q-11 0 -19 8t-8 20v722q0 12 8 20t19 8h56q11 0 19.5 -8t8.5 -20v-306h83q12 0 20 -8t8 -19v-56z" glyph-name="K" unicode="K"/>
<glyph d="M611 28q0 -12 -8 -20t-20 -8h-500q-11 0 -19 8t-8 20v722q0 12 8 20t19 8h56q11 0 19.5 -8t8.5 -20v-639h416q12 0 20 -8t8 -20v-55z" glyph-name="L" unicode="L"/>
<glyph d="M611 28q0 -12 -8 -20t-20 -8h-55q-12 0 -20 8t-8 20v528h-83q-12 0 -20 8t-8 19v56q0 11 8 19.5t20 8.5h83v83q0 12 8 20t20 8h55q12 0 20 -8t8 -20v-722zM389 472q0 -11 -8 -19.5t-20 -8.5h-55q-12 0 -20 8.5t-8 19.5v56q0 11 8 19.5t20 8.5h55q12 0 20 -8.5t8 -19.5 v-56zM278 583q0 -11 -8 -19t-20 -8h-83v-528q0 -12 -8.5 -20t-19.5 -8h-56q-11 0 -19 8t-8 20v722q0 12 8 20t19 8h56q11 0 19.5 -8t8.5 -20v-83h83q12 0 20 -8.5t8 -19.5v-56z" glyph-name="M" unicode="M"/>
<glyph d="M611 28q0 -12 -8 -20t-20 -8h-55q-12 0 -20 8t-8 20v194h-83q-12 0 -20 8t-8 20v56q0 11 8 19t20 8h83v417q0 12 8 20t20 8h55q12 0 20 -8t8 -20v-722zM389 361q0 -11 -8 -19.5t-20 -8.5h-55q-12 0 -20 8.5t-8 19.5v56q0 11 8 19t20 8h55q12 0 20 -8t8 -19v-56zM278 472 q0 -11 -8 -19.5t-20 -8.5h-83v-416q0 -12 -8.5 -20t-19.5 -8h-56q-11 0 -19 8t-8 20v722q0 12 8 20t19 8h56q11 0 19.5 -8t8.5 -20v-194h83q12 0 20 -8.5t8 -19.5v-56z" glyph-name="N" unicode="N"/>
<glyph d="M500 694q0 -11 -8 -19t-20 -8h-278q-11 0 -19 8t-8 19v56q0 12 8 20t19 8h278q12 0 20 -8t8 -20v-56zM611 139q0 -12 -8 -20t-20 -8h-55q-12 0 -20 8t-8 20v500q0 11 8 19.5t20 8.5h55q12 0 20 -8.5t8 -19.5v-500zM167 139q0 -12 -8.5 -20t-19.5 -8h-56q-11 0 -19 8 t-8 20v500q0 11 8 19.5t19 8.5h56q11 0 19.5 -8.5t8.5 -19.5v-500zM500 28q0 -12 -8 -20t-20 -8h-278q-11 0 -19 8t-8 20v55q0 12 8 20t19 8h278q12 0 20 -8t8 -20v-55z" glyph-name="O" unicode="O"/>
<glyph d="M611 472q0 -11 -8 -19.5t-20 -8.5h-55q-12 0 -20 8.5t-8 19.5v167q0 11 8 19.5t20 8.5h55q12 0 20 -8.5t8 -19.5v-167zM500 361q0 -11 -8 -19.5t-20 -8.5h-305v-305q0 -12 -8.5 -20t-19.5 -8h-56q-11 0 -19 8t-8 20v722q0 12 8 20t19 8h389q12 0 20 -8t8 -20v-56 q0 -11 -8 -19t-20 -8h-305v-223h305q12 0 20 -8t8 -19v-56z" glyph-name="P" unicode="P"/>
<glyph d="M500 694q0 -11 -8 -19t-20 -8h-278q-11 0 -19 8t-8 19v56q0 12 8 20t19 8h278q12 0 20 -8t8 -20v-56zM611 250q0 -12 -8 -20t-20 -8h-55q-12 0 -20 8t-8 20v389q0 11 8 19.5t20 8.5h55q12 0 20 -8.5t8 -19.5v-389zM389 250q0 -12 -8 -20t-20 -8h-55q-12 0 -20 8t-8 20v56 q0 11 8 19t20 8h55q12 0 20 -8t8 -19v-56zM500 139q0 -12 -8 -20t-20 -8h-55q-12 0 -20 8t-8 20v55q0 12 8 20t20 8h55q12 0 20 -8t8 -20v-55zM611 28q0 -12 -8 -20t-20 -8h-55q-12 0 -20 8t-8 20v55q0 12 8 20t20 8h55q12 0 20 -8t8 -20v-55zM167 139q0 -12 -8.5 -20 t-19.5 -8h-56q-11 0 -19 8t-8 20v500q0 11 8 19.5t19 8.5h56q11 0 19.5 -8.5t8.5 -19.5v-500zM389 28q0 -12 -8 -20t-20 -8h-167q-11 0 -19 8t-8 20v55q0 12 8 20t19 8h167q12 0 20 -8t8 -20v-55z" glyph-name="Q" unicode="Q"/>
<glyph d="M611 472q0 -11 -8 -19.5t-20 -8.5h-55q-12 0 -20 8.5t-8 19.5v167q0 11 8 19.5t20 8.5h55q12 0 20 -8.5t8 -19.5v-167zM500 361q0 -11 -8 -19.5t-20 -8.5h-83v-83q0 -12 -8 -20t-20 -8h-55q-12 0 -20 8t-8 20v83h-111v-305q0 -12 -8.5 -20t-19.5 -8h-56q-11 0 -19 8 t-8 20v722q0 12 8 20t19 8h389q12 0 20 -8t8 -20v-56q0 -11 -8 -19t-20 -8h-305v-223h305q12 0 20 -8t8 -19v-56zM500 139q0 -12 -8 -20t-20 -8h-55q-12 0 -20 8t-8 20v55q0 12 8 20t20 8h55q12 0 20 -8t8 -20v-55zM611 28q0 -12 -8 -20t-20 -8h-55q-12 0 -20 8t-8 20v55 q0 12 8 20t20 8h55q12 0 20 -8t8 -20v-55z" glyph-name="R" unicode="R"/>
<glyph d="M611 583q0 -11 -8 -19t-20 -8h-55q-12 0 -20 8t-8 19v56q0 11 8 19.5t20 8.5h55q12 0 20 -8.5t8 -19.5v-56zM500 694q0 -11 -8 -19t-20 -8h-278q-11 0 -19 8t-8 19v56q0 12 8 20t19 8h278q12 0 20 -8t8 -20v-56zM611 139q0 -12 -8 -20t-20 -8h-55q-12 0 -20 8t-8 20v167 q0 11 8 19t20 8h55q12 0 20 -8t8 -19v-167zM500 361q0 -11 -8 -19.5t-20 -8.5h-278q-11 0 -19 8.5t-8 19.5v56q0 11 8 19t19 8h278q12 0 20 -8t8 -19v-56zM167 472q0 -11 -8.5 -19.5t-19.5 -8.5h-56q-11 0 -19 8.5t-8 19.5v167q0 11 8 19.5t19 8.5h56q11 0 19.5 -8.5 t8.5 -19.5v-167zM500 28q0 -12 -8 -20t-20 -8h-278q-11 0 -19 8t-8 20v55q0 12 8 20t19 8h278q12 0 20 -8t8 -20v-55zM167 139q0 -12 -8.5 -20t-19.5 -8h-56q-11 0 -19 8t-8 20v55q0 12 8 20t19 8h56q11 0 19.5 -8t8.5 -20v-55z" glyph-name="S" unicode="S"/>
<glyph d="M611 694q0 -11 -8 -19t-20 -8h-194v-639q0 -12 -8 -20t-20 -8h-55q-12 0 -20 8t-8 20v639h-195q-11 0 -19 8t-8 19v56q0 12 8 20t19 8h500q12 0 20 -8t8 -20v-56z" glyph-name="T" unicode="T"/>
<glyph d="M611 139q0 -12 -8 -20t-20 -8h-55q-12 0 -20 8t-8 20v611q0 12 8 20t20 8h55q12 0 20 -8t8 -20v-611zM167 139q0 -12 -8.5 -20t-19.5 -8h-56q-11 0 -19 8t-8 20v611q0 12 8 20t19 8h56q11 0 19.5 -8t8.5 -20v-611zM500 28q0 -12 -8 -20t-20 -8h-278q-11 0 -19 8t-8 20v55 q0 12 8 20t19 8h278q12 0 20 -8t8 -20v-55z" glyph-name="U" unicode="U"/>
<glyph d="M611 250q0 -12 -8 -20t-20 -8h-55q-12 0 -20 8t-8 20v500q0 12 8 20t20 8h55q12 0 20 -8t8 -20v-500zM500 139q0 -12 -8 -20t-20 -8h-55q-12 0 -20 8t-8 20v55q0 12 8 20t20 8h55q12 0 20 -8t8 -20v-55zM167 250q0 -12 -8.5 -20t-19.5 -8h-56q-11 0 -19 8t-8 20v500 q0 12 8 20t19 8h56q11 0 19.5 -8t8.5 -20v-500zM389 28q0 -12 -8 -20t-20 -8h-55q-12 0 -20 8t-8 20v55q0 12 8 20t20 8h55q12 0 20 -8t8 -20v-55zM278 139q0 -12 -8 -20t-20 -8h-56q-11 0 -19 8t-8 20v55q0 12 8 20t19 8h56q12 0 20 -8t8 -20v-55z" glyph-name="V" unicode="V"/>
<glyph d="M611 139q0 -12 -8 -20t-20 -8h-55q-12 0 -20 8t-8 20v611q0 12 8 20t20 8h55q12 0 20 -8t8 -20v-611zM389 139q0 -12 -8 -20t-20 -8h-55q-12 0 -20 8t-8 20v278q0 11 8 19t20 8h55q12 0 20 -8t8 -19v-278zM167 139q0 -12 -8.5 -20t-19.5 -8h-56q-11 0 -19 8t-8 20v611 q0 12 8 20t19 8h56q11 0 19.5 -8t8.5 -20v-611zM500 28q0 -12 -8 -20t-20 -8h-55q-12 0 -20 8t-8 20v55q0 12 8 20t20 8h55q12 0 20 -8t8 -20v-55zM278 28q0 -12 -8 -20t-20 -8h-56q-11 0 -19 8t-8 20v55q0 12 8 20t19 8h56q12 0 20 -8t8 -20v-55z" glyph-name="W" unicode="W"/>
<glyph d="M611 583q0 -11 -8 -19t-20 -8h-55q-12 0 -20 8t-8 19v167q0 12 8 20t20 8h55q12 0 20 -8t8 -20v-167zM500 472q0 -11 -8 -19.5t-20 -8.5h-55q-12 0 -20 8.5t-8 19.5v56q0 11 8 19.5t20 8.5h55q12 0 20 -8.5t8 -19.5v-56zM167 583q0 -11 -8.5 -19t-19.5 -8h-56 q-11 0 -19 8t-8 19v167q0 12 8 20t19 8h56q11 0 19.5 -8t8.5 -20v-167zM389 361q0 -11 -8 -19.5t-20 -8.5h-55q-12 0 -20 8.5t-8 19.5v56q0 11 8 19t20 8h55q12 0 20 -8t8 -19v-56zM500 250q0 -12 -8 -20t-20 -8h-55q-12 0 -20 8t-8 20v56q0 11 8 19t20 8h55q12 0 20 -8 t8 -19v-56zM278 472q0 -11 -8 -19.5t-20 -8.5h-56q-11 0 -19 8.5t-8 19.5v56q0 11 8 19.5t19 8.5h56q12 0 20 -8.5t8 -19.5v-56zM611 28q0 -12 -8 -20t-20 -8h-55q-12 0 -20 8t-8 20v166q0 12 8 20t20 8h55q12 0 20 -8t8 -20v-166zM278 250q0 -12 -8 -20t-20 -8h-56 q-11 0 -19 8t-8 20v56q0 11 8 19t19 8h56q12 0 20 -8t8 -19v-56zM167 28q0 -12 -8.5 -20t-19.5 -8h-56q-11 0 -19 8t-8 20v166q0 12 8 20t19 8h56q11 0 19.5 -8t8.5 -20v-166z" glyph-name="X" unicode="X"/>
<glyph d="M611 583q0 -11 -8 -19t-20 -8h-55q-12 0 -20 8t-8 19v167q0 12 8 20t20 8h55q12 0 20 -8t8 -20v-167zM500 472q0 -11 -8 -19.5t-20 -8.5h-55q-12 0 -20 8.5t-8 19.5v56q0 11 8 19.5t20 8.5h55q12 0 20 -8.5t8 -19.5v-56zM167 583q0 -11 -8.5 -19t-19.5 -8h-56 q-11 0 -19 8t-8 19v167q0 12 8 20t19 8h56q11 0 19.5 -8t8.5 -20v-167zM278 472q0 -11 -8 -19.5t-20 -8.5h-56q-11 0 -19 8.5t-8 19.5v56q0 11 8 19.5t19 8.5h56q12 0 20 -8.5t8 -19.5v-56zM389 28q0 -12 -8 -20t-20 -8h-55q-12 0 -20 8t-8 20v389q0 11 8 19t20 8h55 q12 0 20 -8t8 -19v-389z" glyph-name="Y" unicode="Y"/>
<glyph d="M611 583q0 -11 -8 -19t-20 -8h-55q-12 0 -20 8t-8 19v84h-417q-11 0 -19 8t-8 19v56q0 12 8 20t19 8h500q12 0 20 -8t8 -20v-167zM500 472q0 -11 -8 -19.5t-20 -8.5h-55q-12 0 -20 8.5t-8 19.5v56q0 11 8 19.5t20 8.5h55q12 0 20 -8.5t8 -19.5v-56zM389 361 q0 -11 -8 -19.5t-20 -8.5h-55q-12 0 -20 8.5t-8 19.5v56q0 11 8 19t20 8h55q12 0 20 -8t8 -19v-56zM278 250q0 -12 -8 -20t-20 -8h-56q-11 0 -19 8t-8 20v56q0 11 8 19t19 8h56q12 0 20 -8t8 -19v-56zM611 28q0 -12 -8 -20t-20 -8h-500q-11 0 -19 8t-8 20v166q0 12 8 20 t19 8h56q11 0 19.5 -8t8.5 -20v-83h416q12 0 20 -8t8 -20v-55z" glyph-name="Z" unicode="Z"/>
<glyph d="M667 28q0 -12 -8.5 -20t-19.5 -8h-389q-12 0 -20 8t-8 20v722q0 12 8 20t20 8h389q11 0 19.5 -8t8.5 -20v-56q0 -11 -8.5 -19t-19.5 -8h-306v-556h306q11 0 19.5 -8t8.5 -20v-55z" glyph-name="bracketleft" unicode="["/>
<glyph d="M167 583q0 -11 -8.5 -19t-19.5 -8h-56q-11 0 -19 8t-8 19v167q0 12 8 20t19 8h56q11 0 19.5 -8t8.5 -20v-167zM278 472q0 -11 -8 -19.5t-20 -8.5h-56q-11 0 -19 8.5t-8 19.5v56q0 11 8 19.5t19 8.5h56q12 0 20 -8.5t8 -19.5v-56zM389 361q0 -11 -8 -19.5t-20 -8.5h-55 q-12 0 -20 8.5t-8 19.5v56q0 11 8 19t20 8h55q12 0 20 -8t8 -19v-56zM500 250q0 -12 -8 -20t-20 -8h-55q-12 0 -20 8t-8 20v56q0 11 8 19t20 8h55q12 0 20 -8t8 -19v-56zM611 28q0 -12 -8 -20t-20 -8h-55q-12 0 -20 8t-8 20v166q0 12 8 20t20 8h55q12 0 20 -8t8 -20v-166z " glyph-name="backslash" unicode="\"/>
<glyph d="M556 28q0 -12 -8.5 -20t-19.5 -8h-389q-12 0 -20 8t-8 20v55q0 12 8 20t20 8h305v556h-305q-12 0 -20 8t-8 19v56q0 12 8 20t20 8h389q11 0 19.5 -8t8.5 -20v-722z" glyph-name="bracketright" unicode="]"/>
<glyph d="M389 556h-111v111h-111v-111h-111v111h111v111h111v-111h111v-111z" glyph-name="asciicircum" horiz-adv-x="444" unicode="^"/>
<glyph d="M667 -83q0 -12 -8.5 -20t-19.5 -8h-500q-12 0 -20 8t-8 20v55q0 12 8 20t20 8h500q11 0 19.5 -8t8.5 -20v-55z" glyph-name="underscore" unicode="_"/>
<glyph d="M278 694q0 -11 -8 -19t-20 -8h-56q-11 0 -19 8t-8 19v56q0 12 8 20t19 8h56q12 0 20 -8t8 -20v-56zM389 583q0 -11 -8 -19t-20 -8h-55q-12 0 -20 8t-8 19v56q0 11 8 19.5t20 8.5h55q12 0 20 -8.5t8 -19.5v-56z" glyph-name="grave" unicode="`"/>
<glyph d="M500 472q0 -11 -8 -19.5t-20 -8.5h-278q-11 0 -19 8.5t-8 19.5v56q0 11 8 19.5t19 8.5h278q12 0 20 -8.5t8 -19.5v-56zM611 28q0 -12 -8 -20t-20 -8h-389q-11 0 -19 8t-8 20v55q0 12 8 20t19 8h306v111h-306q-11 0 -19 8t-8 20v56q0 11 8 19t19 8h306v84q0 11 8 19t20 8 h55q12 0 20 -8t8 -19v-389zM167 139q0 -12 -8.5 -20t-19.5 -8h-56q-11 0 -19 8t-8 20v55q0 12 8 20t19 8h56q11 0 19.5 -8t8.5 -20v-55z" glyph-name="a" unicode="a"/>
<glyph d="M611 139q0 -12 -8 -20t-20 -8h-55q-12 0 -20 8t-8 20v278q0 11 8 19t20 8h55q12 0 20 -8t8 -19v-278zM500 28q0 -12 -8 -20t-20 -8h-389q-11 0 -19 8t-8 20v722q0 12 8 20t19 8h56q11 0 19.5 -8t8.5 -20v-194h305q12 0 20 -8.5t8 -19.5v-56q0 -11 -8 -19.5t-20 -8.5h-305 v-333h305q12 0 20 -8t8 -20v-55z" glyph-name="b" unicode="b"/>
<glyph d="M611 472q0 -11 -8 -19.5t-20 -8.5h-389q-11 0 -19 8.5t-8 19.5v56q0 11 8 19.5t19 8.5h389q12 0 20 -8.5t8 -19.5v-56zM611 28q0 -12 -8 -20t-20 -8h-389q-11 0 -19 8t-8 20v55q0 12 8 20t19 8h389q12 0 20 -8t8 -20v-55zM167 139q0 -12 -8.5 -20t-19.5 -8h-56 q-11 0 -19 8t-8 20v278q0 11 8 19t19 8h56q11 0 19.5 -8t8.5 -19v-278z" glyph-name="c" unicode="c"/>
<glyph d="M611 28q0 -12 -8 -20t-20 -8h-389q-11 0 -19 8t-8 20v55q0 12 8 20t19 8h306v333h-306q-11 0 -19 8.5t-8 19.5v56q0 11 8 19.5t19 8.5h306v194q0 12 8 20t20 8h55q12 0 20 -8t8 -20v-722zM167 139q0 -12 -8.5 -20t-19.5 -8h-56q-11 0 -19 8t-8 20v278q0 11 8 19t19 8h56 q11 0 19.5 -8t8.5 -19v-278z" glyph-name="d" unicode="d"/>
<glyph d="M500 472q0 -11 -8 -19.5t-20 -8.5h-278q-11 0 -19 8.5t-8 19.5v56q0 11 8 19.5t19 8.5h278q12 0 20 -8.5t8 -19.5v-56zM611 250q0 -12 -8 -20t-20 -8h-416v-83q0 -12 -8.5 -20t-19.5 -8h-56q-11 0 -19 8t-8 20v278q0 11 8 19t19 8h56q11 0 19.5 -8t8.5 -19v-84h333v84 q0 11 8 19t20 8h55q12 0 20 -8t8 -19v-167zM611 28q0 -12 -8 -20t-20 -8h-389q-11 0 -19 8t-8 20v55q0 12 8 20t19 8h389q12 0 20 -8t8 -20v-55z" glyph-name="e" unicode="e"/>
<glyph d="M611 694q0 -11 -8 -19t-20 -8h-166q-12 0 -20 8t-8 19v56q0 12 8 20t20 8h166q12 0 20 -8t8 -20v-56zM611 472q0 -11 -8 -19.5t-20 -8.5h-194v-416q0 -12 -8 -20t-20 -8h-55q-12 0 -20 8t-8 20v416h-195q-11 0 -19 8.5t-8 19.5v56q0 11 8 19.5t19 8.5h195v83q0 11 8 19.5 t20 8.5h55q12 0 20 -8.5t8 -19.5v-83h194q12 0 20 -8.5t8 -19.5v-56z" glyph-name="f" unicode="f"/>
<glyph d="M611 -83q0 -12 -8 -20t-20 -8h-55q-12 0 -20 8t-8 20v83h-306q-11 0 -19 8t-8 20v55q0 12 8 20t19 8h306v333h-306q-11 0 -19 8.5t-8 19.5v56q0 11 8 19.5t19 8.5h389q12 0 20 -8.5t8 -19.5v-611zM167 139q0 -12 -8.5 -20t-19.5 -8h-56q-11 0 -19 8t-8 20v278q0 11 8 19 t19 8h56q11 0 19.5 -8t8.5 -19v-278zM500 -194q0 -12 -8 -20t-20 -8h-389q-11 0 -19 8t-8 20v55q0 12 8 20t19 8h389q12 0 20 -8t8 -20v-55z" glyph-name="g" unicode="g"/>
<glyph d="M611 28q0 -12 -8 -20t-20 -8h-55q-12 0 -20 8t-8 20v389q0 11 8 19t20 8h55q12 0 20 -8t8 -19v-389zM500 472q0 -11 -8 -19.5t-20 -8.5h-305v-416q0 -12 -8.5 -20t-19.5 -8h-56q-11 0 -19 8t-8 20v722q0 12 8 20t19 8h56q11 0 19.5 -8t8.5 -20v-194h305q12 0 20 -8.5 t8 -19.5v-56z" glyph-name="h" unicode="h"/>
<glyph d="M389 694q0 -11 -8 -19t-20 -8h-55q-12 0 -20 8t-8 19v56q0 12 8 20t20 8h55q12 0 20 -8t8 -20v-56zM611 28q0 -12 -8 -20t-20 -8h-500q-11 0 -19 8t-8 20v55q0 12 8 20t19 8h195v333h-84q-11 0 -19 8.5t-8 19.5v56q0 11 8 19.5t19 8.5h167q12 0 20 -8.5t8 -19.5v-417h194 q12 0 20 -8t8 -20v-55z" glyph-name="i" unicode="i"/>
<glyph d="M611 694q0 -11 -8 -19t-20 -8h-55q-12 0 -20 8t-8 19v56q0 12 8 20t20 8h55q12 0 20 -8t8 -20v-56zM611 -83q0 -12 -8 -20t-20 -8h-55q-12 0 -20 8t-8 20v527h-83q-12 0 -20 8.5t-8 19.5v56q0 11 8 19.5t20 8.5h166q12 0 20 -8.5t8 -19.5v-611zM500 -194q0 -12 -8 -20 t-20 -8h-278q-11 0 -19 8t-8 20v55q0 12 8 20t19 8h278q12 0 20 -8t8 -20v-55zM167 -83q0 -12 -8.5 -20t-19.5 -8h-56q-11 0 -19 8t-8 20v55q0 12 8 20t19 8h56q11 0 19.5 -8t8.5 -20v-55z" glyph-name="j" unicode="j"/>
<glyph d="M611 472q0 -11 -8 -19.5t-20 -8.5h-55q-12 0 -20 8.5t-8 19.5v56q0 11 8 19.5t20 8.5h55q12 0 20 -8.5t8 -19.5v-56zM500 361q0 -11 -8 -19.5t-20 -8.5h-55q-12 0 -20 8.5t-8 19.5v56q0 11 8 19t20 8h55q12 0 20 -8t8 -19v-56zM389 250q0 -12 -8 -20t-20 -8h-55 q-12 0 -20 8t-8 20v56q0 11 8 19t20 8h55q12 0 20 -8t8 -19v-56zM500 139q0 -12 -8 -20t-20 -8h-55q-12 0 -20 8t-8 20v55q0 12 8 20t20 8h55q12 0 20 -8t8 -20v-55zM611 28q0 -12 -8 -20t-20 -8h-55q-12 0 -20 8t-8 20v55q0 12 8 20t20 8h55q12 0 20 -8t8 -20v-55zM278 139 q0 -12 -8 -20t-20 -8h-83v-83q0 -12 -8.5 -20t-19.5 -8h-56q-11 0 -19 8t-8 20v722q0 12 8 20t19 8h56q11 0 19.5 -8t8.5 -20v-528h83q12 0 20 -8t8 -20v-55z" glyph-name="k" unicode="k"/>
<glyph d="M611 28q0 -12 -8 -20t-20 -8h-500q-11 0 -19 8t-8 20v55q0 12 8 20t19 8h195v556h-84q-11 0 -19 8t-8 19v56q0 12 8 20t19 8h167q12 0 20 -8t8 -20v-639h194q12 0 20 -8t8 -20v-55z" glyph-name="l" unicode="l"/>
<glyph d="M500 472q0 -11 -8 -19.5t-20 -8.5h-55q-12 0 -20 8.5t-8 19.5v56q0 11 8 19.5t20 8.5h55q12 0 20 -8.5t8 -19.5v-56zM611 28q0 -12 -8 -20t-20 -8h-55q-12 0 -20 8t-8 20v389q0 11 8 19t20 8h55q12 0 20 -8t8 -19v-389zM389 28q0 -12 -8 -20t-20 -8h-55q-12 0 -20 8 t-8 20v389q0 11 8 19t20 8h55q12 0 20 -8t8 -19v-389zM278 472q0 -11 -8 -19.5t-20 -8.5h-83v-416q0 -12 -8.5 -20t-19.5 -8h-56q-11 0 -19 8t-8 20v500q0 11 8 19.5t19 8.5h167q12 0 20 -8.5t8 -19.5v-56z" glyph-name="m" unicode="m"/>
<glyph d="M611 28q0 -12 -8 -20t-20 -8h-55q-12 0 -20 8t-8 20v389q0 11 8 19t20 8h55q12 0 20 -8t8 -19v-389zM500 472q0 -11 -8 -19.5t-20 -8.5h-305v-416q0 -12 -8.5 -20t-19.5 -8h-56q-11 0 -19 8t-8 20v500q0 11 8 19.5t19 8.5h389q12 0 20 -8.5t8 -19.5v-56z" glyph-name="n" unicode="n"/>
<glyph d="M611 139q0 -12 -8 -20t-20 -8h-55q-12 0 -20 8t-8 20v278q0 11 8 19t20 8h55q12 0 20 -8t8 -19v-278zM500 472q0 -11 -8 -19.5t-20 -8.5h-278q-11 0 -19 8.5t-8 19.5v56q0 11 8 19.5t19 8.5h278q12 0 20 -8.5t8 -19.5v-56zM500 28q0 -12 -8 -20t-20 -8h-278q-11 0 -19 8 t-8 20v55q0 12 8 20t19 8h278q12 0 20 -8t8 -20v-55zM167 139q0 -12 -8.5 -20t-19.5 -8h-56q-11 0 -19 8t-8 20v278q0 11 8 19t19 8h56q11 0 19.5 -8t8.5 -19v-278z" glyph-name="o" unicode="o"/>
<glyph d="M611 139q0 -12 -8 -20t-20 -8h-55q-12 0 -20 8t-8 20v278q0 11 8 19t20 8h55q12 0 20 -8t8 -19v-278zM500 28q0 -12 -8 -20t-20 -8h-305v-194q0 -12 -8.5 -20t-19.5 -8h-56q-11 0 -19 8t-8 20v722q0 11 8 19.5t19 8.5h389q12 0 20 -8.5t8 -19.5v-56q0 -11 -8 -19.5 t-20 -8.5h-305v-333h305q12 0 20 -8t8 -20v-55z" glyph-name="p" unicode="p"/>
<glyph d="M611 -194q0 -12 -8 -20t-20 -8h-55q-12 0 -20 8t-8 20v194h-306q-11 0 -19 8t-8 20v55q0 12 8 20t19 8h306v333h-306q-11 0 -19 8.5t-8 19.5v56q0 11 8 19.5t19 8.5h389q12 0 20 -8.5t8 -19.5v-722zM167 139q0 -12 -8.5 -20t-19.5 -8h-56q-11 0 -19 8t-8 20v278 q0 11 8 19t19 8h56q11 0 19.5 -8t8.5 -19v-278z" glyph-name="q" unicode="q"/>
<glyph d="M611 361q0 -11 -8 -19.5t-20 -8.5h-55q-12 0 -20 8.5t-8 19.5v56q0 11 8 19t20 8h55q12 0 20 -8t8 -19v-56zM500 472q0 -11 -8 -19.5t-20 -8.5h-305v-416q0 -12 -8.5 -20t-19.5 -8h-56q-11 0 -19 8t-8 20v500q0 11 8 19.5t19 8.5h389q12 0 20 -8.5t8 -19.5v-56z" glyph-name="r" unicode="r"/>
<glyph d="M611 472q0 -11 -8 -19.5t-20 -8.5h-389q-11 0 -19 8.5t-8 19.5v56q0 11 8 19.5t19 8.5h389q12 0 20 -8.5t8 -19.5v-56zM611 139q0 -12 -8 -20t-20 -8h-55q-12 0 -20 8t-8 20v55q0 12 8 20t20 8h55q12 0 20 -8t8 -20v-55zM500 250q0 -12 -8 -20t-20 -8h-278q-11 0 -19 8 t-8 20v56q0 11 8 19t19 8h278q12 0 20 -8t8 -19v-56zM167 361q0 -11 -8.5 -19.5t-19.5 -8.5h-56q-11 0 -19 8.5t-8 19.5v56q0 11 8 19t19 8h56q11 0 19.5 -8t8.5 -19v-56zM500 28q0 -12 -8 -20t-20 -8h-389q-11 0 -19 8t-8 20v55q0 12 8 20t19 8h389q12 0 20 -8t8 -20v-55z " glyph-name="s" unicode="s"/>
<glyph d="M611 472q0 -11 -8 -19.5t-20 -8.5h-194v-305q0 -12 -8 -20t-20 -8h-55q-12 0 -20 8t-8 20v305h-195q-11 0 -19 8.5t-8 19.5v56q0 11 8 19.5t19 8.5h195v194q0 12 8 20t20 8h55q12 0 20 -8t8 -20v-194h194q12 0 20 -8.5t8 -19.5v-56zM611 28q0 -12 -8 -20t-20 -8h-166 q-12 0 -20 8t-8 20v55q0 12 8 20t20 8h166q12 0 20 -8t8 -20v-55z" glyph-name="t" unicode="t"/>
<glyph d="M611 28q0 -12 -8 -20t-20 -8h-389q-11 0 -19 8t-8 20v55q0 12 8 20t19 8h306v417q0 11 8 19.5t20 8.5h55q12 0 20 -8.5t8 -19.5v-500zM167 139q0 -12 -8.5 -20t-19.5 -8h-56q-11 0 -19 8t-8 20v389q0 11 8 19.5t19 8.5h56q11 0 19.5 -8.5t8.5 -19.5v-389z" glyph-name="u" unicode="u"/>
<glyph d="M611 250q0 -12 -8 -20t-20 -8h-55q-12 0 -20 8t-8 20v278q0 11 8 19.5t20 8.5h55q12 0 20 -8.5t8 -19.5v-278zM500 139q0 -12 -8 -20t-20 -8h-55q-12 0 -20 8t-8 20v55q0 12 8 20t20 8h55q12 0 20 -8t8 -20v-55zM167 250q0 -12 -8.5 -20t-19.5 -8h-56q-11 0 -19 8t-8 20 v278q0 11 8 19.5t19 8.5h56q11 0 19.5 -8.5t8.5 -19.5v-278zM389 28q0 -12 -8 -20t-20 -8h-55q-12 0 -20 8t-8 20v55q0 12 8 20t20 8h55q12 0 20 -8t8 -20v-55zM278 139q0 -12 -8 -20t-20 -8h-56q-11 0 -19 8t-8 20v55q0 12 8 20t19 8h56q12 0 20 -8t8 -20v-55z" glyph-name="v" unicode="v"/>
<glyph d="M611 139q0 -12 -8 -20t-20 -8h-55q-12 0 -20 8t-8 20v389q0 11 8 19.5t20 8.5h55q12 0 20 -8.5t8 -19.5v-389zM389 139q0 -12 -8 -20t-20 -8h-55q-12 0 -20 8t-8 20v167q0 11 8 19t20 8h55q12 0 20 -8t8 -19v-167zM500 28q0 -12 -8 -20t-20 -8h-55q-12 0 -20 8t-8 20v55 q0 12 8 20t20 8h55q12 0 20 -8t8 -20v-55zM167 139q0 -12 -8.5 -20t-19.5 -8h-56q-11 0 -19 8t-8 20v389q0 11 8 19.5t19 8.5h56q11 0 19.5 -8.5t8.5 -19.5v-389zM278 28q0 -12 -8 -20t-20 -8h-56q-11 0 -19 8t-8 20v55q0 12 8 20t19 8h56q12 0 20 -8t8 -20v-55z" glyph-name="w" unicode="w"/>
<glyph d="M611 472q0 -11 -8 -19.5t-20 -8.5h-55q-12 0 -20 8.5t-8 19.5v56q0 11 8 19.5t20 8.5h55q12 0 20 -8.5t8 -19.5v-56zM500 361q0 -11 -8 -19.5t-20 -8.5h-55q-12 0 -20 8.5t-8 19.5v56q0 11 8 19t20 8h55q12 0 20 -8t8 -19v-56zM389 250q0 -12 -8 -20t-20 -8h-55 q-12 0 -20 8t-8 20v56q0 11 8 19t20 8h55q12 0 20 -8t8 -19v-56zM500 139q0 -12 -8 -20t-20 -8h-55q-12 0 -20 8t-8 20v55q0 12 8 20t20 8h55q12 0 20 -8t8 -20v-55zM611 28q0 -12 -8 -20t-20 -8h-55q-12 0 -20 8t-8 20v55q0 12 8 20t20 8h55q12 0 20 -8t8 -20v-55zM278 361 q0 -11 -8 -19.5t-20 -8.5h-56q-11 0 -19 8.5t-8 19.5v56q0 11 8 19t19 8h56q12 0 20 -8t8 -19v-56zM167 472q0 -11 -8.5 -19.5t-19.5 -8.5h-56q-11 0 -19 8.5t-8 19.5v56q0 11 8 19.5t19 8.5h56q11 0 19.5 -8.5t8.5 -19.5v-56zM278 139q0 -12 -8 -20t-20 -8h-56q-11 0 -19 8 t-8 20v55q0 12 8 20t19 8h56q12 0 20 -8t8 -20v-55zM167 28q0 -12 -8.5 -20t-19.5 -8h-56q-11 0 -19 8t-8 20v55q0 12 8 20t19 8h56q11 0 19.5 -8t8.5 -20v-55z" glyph-name="x" unicode="x"/>
<glyph d="M611 -83q0 -12 -8 -20t-20 -8h-55q-12 0 -20 8t-8 20v83h-306q-11 0 -19 8t-8 20v55q0 12 8 20t19 8h306v417q0 11 8 19.5t20 8.5h55q12 0 20 -8.5t8 -19.5v-611zM167 139q0 -12 -8.5 -20t-19.5 -8h-56q-11 0 -19 8t-8 20v389q0 11 8 19.5t19 8.5h56q11 0 19.5 -8.5 t8.5 -19.5v-389zM500 -194q0 -12 -8 -20t-20 -8h-389q-11 0 -19 8t-8 20v55q0 12 8 20t19 8h389q12 0 20 -8t8 -20v-55z" glyph-name="y" unicode="y"/>
<glyph d="M611 472q0 -11 -8 -19.5t-20 -8.5h-83v-83q0 -11 -8 -19.5t-20 -8.5h-55q-12 0 -20 8.5t-8 19.5v83h-306q-11 0 -19 8.5t-8 19.5v56q0 11 8 19.5t19 8.5h500q12 0 20 -8.5t8 -19.5v-56zM389 250q0 -12 -8 -20t-20 -8h-55q-12 0 -20 8t-8 20v56q0 11 8 19t20 8h55 q12 0 20 -8t8 -19v-56zM611 28q0 -12 -8 -20t-20 -8h-500q-11 0 -19 8t-8 20v55q0 12 8 20t19 8h84v83q0 12 8 20t19 8h56q12 0 20 -8t8 -20v-83h305q12 0 20 -8t8 -20v-55z" glyph-name="z" unicode="z"/>
<glyph d="M389 0h-111v111h-111v222h-111v111h111v223h111v111h111v-111h-111v-556h111v-111z" glyph-name="braceleft" horiz-adv-x="444" unicode="{"/>
<glyph d="M389 -194q0 -12 -8 -20t-20 -8h-55q-12 0 -20 8t-8 20v944q0 12 8 20t20 8h55q12 0 20 -8t8 -20v-944z" glyph-name="bar" unicode="|"/>
<glyph d="M389 333h-111v-222h-111v-111h-111v111h111v556h-111v111h111v-111h111v-223h111v-111z" glyph-name="braceright" horiz-adv-x="444" unicode="}"/>
<glyph d="M611 361q0 -11 -8 -19.5t-20 -8.5h-55q-12 0 -20 8.5t-8 19.5v56q0 11 8 19t20 8h55q12 0 20 -8t8 -19v-56zM278 472q0 -11 -8 -19.5t-20 -8.5h-56q-11 0 -19 8.5t-8 19.5v56q0 11 8 19.5t19 8.5h56q12 0 20 -8.5t8 -19.5v-56zM389 361q0 -11 -8 -19.5t-20 -8.5h-55 q-12 0 -20 8.5t-8 19.5v56q0 11 8 19t20 8h55q12 0 20 -8t8 -19v-56zM500 250q0 -12 -8 -20t-20 -8h-55q-12 0 -20 8t-8 20v56q0 11 8 19t20 8h55q12 0 20 -8t8 -19v-56zM167 361q0 -11 -8.5 -19.5t-19.5 -8.5h-56q-11 0 -19 8.5t-8 19.5v56q0 11 8 19t19 8h56q11 0 19.5 -8 t8.5 -19v-56z" glyph-name="asciitilde" unicode="~"/>
<glyph glyph-name="nbspace" unicode=" "/>
<glyph d="M389 694q0 -11 -8 -19t-20 -8h-55q-12 0 -20 8t-8 19v56q0 12 8 20t20 8h55q12 0 20 -8t8 -20v-56zM389 28q0 -12 -8 -20t-20 -8h-55q-12 0 -20 8t-8 20v500q0 11 8 19.5t20 8.5h55q12 0 20 -8.5t8 -19.5v-500z" glyph-name="exclamdown" unicode="¡"/>
<glyph d="M611 139q0 -12 -8 -20t-20 -8h-83v-83q0 -12 -8 -20t-20 -8h-55q-12 0 -20 8t-8 20v83h-195q-11 0 -19 8t-8 20v55q0 12 8 20t19 8h195v334h-195q-11 0 -19 8t-8 19v56q0 11 8 19.5t19 8.5h195v83q0 12 8 20t20 8h55q12 0 20 -8t8 -20v-83h83q12 0 20 -8.5t8 -19.5v-56 q0 -11 -8 -19t-20 -8h-83v-334h83q12 0 20 -8t8 -20v-55zM167 250q0 -12 -8.5 -20t-19.5 -8h-56q-11 0 -19 8t-8 20v278q0 11 8 19.5t19 8.5h56q11 0 19.5 -8.5t8.5 -19.5v-278z" glyph-name="cent" unicode="¢"/>
<glyph d="M500 0h-444v111h111v222h-111v111h111v223h111v111h222v-111h-222v-223h111v-111h-111v-222h222v-111z" glyph-name="sterling" horiz-adv-x="556" unicode="£"/>
<glyph d="M611 583q0 -11 -8 -19t-20 -8h-55q-12 0 -20 8t-8 19v167q0 12 8 20t20 8h55q12 0 20 -8t8 -20v-167zM167 583q0 -11 -8.5 -19t-19.5 -8h-56q-11 0 -19 8t-8 19v167q0 12 8 20t19 8h56q11 0 19.5 -8t8.5 -20v-167zM611 139q0 -12 -8 -20t-20 -8h-194v-83q0 -12 -8 -20 t-20 -8h-55q-12 0 -20 8t-8 20v83h-195q-11 0 -19 8t-8 20v55q0 12 8 20t19 8h195v111h-195q-11 0 -19 8.5t-8 19.5v56q0 11 8 19t19 8h84v84q0 11 8 19.5t19 8.5h56q12 0 20 -8.5t8 -19.5v-84h111v84q0 11 8 19.5t20 8.5h55q12 0 20 -8.5t8 -19.5v-84h83q12 0 20 -8t8 -19 v-56q0 -11 -8 -19.5t-20 -8.5h-194v-111h194q12 0 20 -8t8 -20v-55z" glyph-name="yen" unicode="¥"/>
<glyph d="M389 361q0 -11 -8 -19.5t-20 -8.5h-55q-12 0 -20 8.5t-8 19.5v389q0 12 8 20t20 8h55q12 0 20 -8t8 -20v-389zM389 -194q0 -12 -8 -20t-20 -8h-55q-12 0 -20 8t-8 20v388q0 12 8 20t20 8h55q12 0 20 -8t8 -20v-388z" glyph-name="brokenbar" unicode="¦"/>
<glyph d="M611 694q0 -11 -8 -19t-20 -8h-389q-11 0 -19 8t-8 19v56q0 12 8 20t19 8h389q12 0 20 -8t8 -20v-56zM611 361q0 -11 -8 -19.5t-20 -8.5h-55q-12 0 -20 8.5t-8 19.5v56q0 11 8 19t20 8h55q12 0 20 -8t8 -19v-56zM500 472q0 -11 -8 -19.5t-20 -8.5h-278q-11 0 -19 8.5 t-8 19.5v56q0 11 8 19.5t19 8.5h278q12 0 20 -8.5t8 -19.5v-56zM167 583q0 -11 -8.5 -19t-19.5 -8h-56q-11 0 -19 8t-8 19v56q0 11 8 19.5t19 8.5h56q11 0 19.5 -8.5t8.5 -19.5v-56zM611 139q0 -12 -8 -20t-20 -8h-55q-12 0 -20 8t-8 20v55q0 12 8 20t20 8h55q12 0 20 -8 t8 -20v-55zM500 250q0 -12 -8 -20t-20 -8h-278q-11 0 -19 8t-8 20v56q0 11 8 19t19 8h278q12 0 20 -8t8 -19v-56zM167 361q0 -11 -8.5 -19.5t-19.5 -8.5h-56q-11 0 -19 8.5t-8 19.5v56q0 11 8 19t19 8h56q11 0 19.5 -8t8.5 -19v-56zM500 28q0 -12 -8 -20t-20 -8h-389 q-11 0 -19 8t-8 20v55q0 12 8 20t19 8h389q12 0 20 -8t8 -20v-55z" glyph-name="section" unicode="§"/>
<glyph d="M500 694q0 -11 -8 -19t-20 -8h-55q-12 0 -20 8t-8 19v56q0 12 8 20t20 8h55q12 0 20 -8t8 -20v-56zM278 694q0 -11 -8 -19t-20 -8h-56q-11 0 -19 8t-8 19v56q0 12 8 20t19 8h56q12 0 20 -8t8 -20v-56z" glyph-name="dieresis" unicode="¨"/>
<glyph d="M611 694q0 -11 -8 -19t-20 -8h-500q-11 0 -19 8t-8 19v56q0 12 8 20t19 8h500q12 0 20 -8t8 -20v-56zM611 472q0 -11 -8 -19.5t-20 -8.5h-389q-11 0 -19 8.5t-8 19.5v56q0 11 8 19.5t19 8.5h389q12 0 20 -8.5t8 -19.5v-56zM611 28q0 -12 -8 -20t-20 -8h-389q-11 0 -19 8 t-8 20v55q0 12 8 20t19 8h389q12 0 20 -8t8 -20v-55zM167 139q0 -12 -8.5 -20t-19.5 -8h-56q-11 0 -19 8t-8 20v278q0 11 8 19t19 8h56q11 0 19.5 -8t8.5 -19v-278zM611 -194q0 -12 -8 -20t-20 -8h-500q-11 0 -19 8t-8 20v55q0 12 8 20t19 8h500q12 0 20 -8t8 -20v-55z" glyph-name="copyright" unicode="©"/>
<glyph d="M500 694q0 -11 -8 -19t-20 -8h-278q-11 0 -19 8t-8 19v56q0 12 8 20t19 8h278q12 0 20 -8t8 -20v-56zM611 250q0 -12 -8 -20t-20 -8h-389q-11 0 -19 8t-8 20v56q0 11 8 19t19 8h306v111h-306q-11 0 -19 8.5t-8 19.5v56q0 11 8 19.5t19 8.5h306v83q0 11 8 19.5t20 8.5h55 q12 0 20 -8.5t8 -19.5v-389zM167 361q0 -11 -8.5 -19.5t-19.5 -8.5h-56q-11 0 -19 8.5t-8 19.5v56q0 11 8 19t19 8h56q11 0 19.5 -8t8.5 -19v-56z" glyph-name="ordfeminine" unicode="ª"/>
<glyph d="M500 694q0 -11 -8 -19t-20 -8h-55q-12 0 -20 8t-8 19v56q0 12 8 20t20 8h55q12 0 20 -8t8 -20v-56zM612 472q0 -11 -8.5 -19.5t-19.5 -8.5h-56q-11 0 -19.5 8.5t-8.5 19.5v56q0 11 8.5 19.5t19.5 8.5h56q11 0 19.5 -8.5t8.5 -19.5v-56zM389 583q0 -11 -8 -19t-20 -8h-55 q-12 0 -20 8t-8 19v56q0 11 8 19.5t20 8.5h55q12 0 20 -8.5t8 -19.5v-56zM500 361q0 -11 -8 -19.5t-19 -8.5h-56q-11 0 -19.5 8.5t-8.5 19.5v56q0 11 8.5 19t19.5 8h56q11 0 19 -8t8 -19v-56zM612 250q0 -12 -8.5 -20t-19.5 -8h-56q-11 0 -19.5 8t-8.5 20v56q0 11 8.5 19 t19.5 8h56q11 0 19.5 -8t8.5 -19v-56zM278 472q0 -11 -8 -19.5t-20 -8.5h-56q-11 0 -19 8.5t-8 19.5v56q0 11 8 19.5t19 8.5h56q12 0 20 -8.5t8 -19.5v-56zM167 361q0 -11 -8.5 -19.5t-19.5 -8.5h-56q-11 0 -19 8.5t-8 19.5v56q0 11 8 19t19 8h56q11 0 19.5 -8t8.5 -19v-56z M278 250q0 -12 -8 -20t-20 -8h-56q-11 0 -19 8t-8 20v56q0 11 8 19t19 8h56q12 0 20 -8t8 -19v-56zM500 28q0 -12 -8 -20t-20 -8h-55q-12 0 -20 8t-8 20v55q0 12 8 20t20 8h55q12 0 20 -8t8 -20v-55zM389 139q0 -12 -8 -20t-20 -8h-55q-12 0 -20 8t-8 20v55q0 12 8 20t20 8 h55q12 0 20 -8t8 -20v-55z" glyph-name="guillemotleft" unicode="«"/>
<glyph d="M611 694q0 -11 -8 -19t-20 -8h-500q-11 0 -19 8t-8 19v56q0 12 8 20t19 8h500q12 0 20 -8t8 -20v-56zM611 361q0 -11 -8 -19.5t-20 -8.5h-55q-12 0 -20 8.5t-8 19.5v56q0 11 8 19t20 8h55q12 0 20 -8t8 -19v-56zM611 28q0 -12 -8 -20t-20 -8h-55q-12 0 -20 8t-8 20v55 q0 12 8 20t20 8h55q12 0 20 -8t8 -20v-55zM500 139q0 -12 -8 -20t-20 -8h-55q-12 0 -20 8t-8 20v83h-222v-194q0 -12 -8.5 -20t-19.5 -8h-56q-11 0 -19 8t-8 20v500q0 11 8 19.5t19 8.5h389q12 0 20 -8.5t8 -19.5v-56q0 -11 -8 -19.5t-20 -8.5h-305v-111h305q12 0 20 -8 t8 -19v-167zM611 -194q0 -12 -8 -20t-20 -8h-500q-11 0 -19 8t-8 20v55q0 12 8 20t19 8h500q12 0 20 -8t8 -20v-55z" glyph-name="registered" unicode="®"/>
<glyph d="M500 694q0 -11 -8 -19t-20 -8h-278q-11 0 -19 8t-8 19v56q0 12 8 20t19 8h278q12 0 20 -8t8 -20v-56z" glyph-name="macron" unicode="¯"/>
<glyph d="M389 694q0 -11 -8 -19t-20 -8h-55q-12 0 -20 8t-8 19v56q0 12 8 20t20 8h55q12 0 20 -8t8 -20v-56zM500 583q0 -11 -8 -19t-20 -8h-55q-12 0 -20 8t-8 19v56q0 11 8 19.5t20 8.5h55q12 0 20 -8.5t8 -19.5v-56zM389 472q0 -11 -8 -19.5t-20 -8.5h-55q-12 0 -20 8.5 t-8 19.5v56q0 11 8 19.5t20 8.5h55q12 0 20 -8.5t8 -19.5v-56zM278 583q0 -11 -8 -19t-20 -8h-56q-11 0 -19 8t-8 19v56q0 11 8 19.5t19 8.5h56q12 0 20 -8.5t8 -19.5v-56z" glyph-name="degree" unicode="°"/>
<glyph d="M611 472q0 -11 -8 -19.5t-20 -8.5h-194v-194q0 -12 -8 -20t-20 -8h-55q-12 0 -20 8t-8 20v194h-195q-11 0 -19 8.5t-8 19.5v56q0 11 8 19.5t19 8.5h195v194q0 12 8 20t20 8h55q12 0 20 -8t8 -20v-194h194q12 0 20 -8.5t8 -19.5v-56zM611 28q0 -12 -8 -20t-20 -8h-500 q-11 0 -19 8t-8 20v55q0 12 8 20t19 8h500q12 0 20 -8t8 -20v-55z" glyph-name="plusminus" unicode="±"/>
<glyph d="M500 694q0 -11 -8 -19t-20 -8h-55q-12 0 -20 8t-8 19v56q0 12 8 20t20 8h55q12 0 20 -8t8 -20v-56zM389 583q0 -11 -8 -19t-20 -8h-55q-12 0 -20 8t-8 19v56q0 11 8 19.5t20 8.5h55q12 0 20 -8.5t8 -19.5v-56z" glyph-name="acute" unicode="´"/>
<glyph d="M611 694q0 -11 -8 -19t-20 -8h-83v-750q0 -12 -8 -20t-20 -8h-55q-12 0 -20 8t-8 20v416h-195q-11 0 -19 8.5t-8 19.5v83h-84q-11 0 -19 8.5t-8 19.5v167q0 11 8 19.5t19 8.5h84v83q0 11 8 19.5t19 8.5h389q12 0 20 -8.5t8 -19.5v-56zM389 -194q0 -12 -8 -20t-20 -8h-55 q-12 0 -20 8t-8 20v55q0 12 8 20t20 8h55q12 0 20 -8t8 -20v-55z" glyph-name="paragraph" unicode="¶"/>
<glyph d="M556 361q0 -11 -8.5 -19.5t-19.5 -8.5h-167q-11 0 -19.5 8.5t-8.5 19.5v167q0 11 8.5 19.5t19.5 8.5h167q11 0 19.5 -8.5t8.5 -19.5v-167z" glyph-name="periodcentered" unicode="·"/>
<glyph d="M389 -83q0 -12 -8 -20t-20 -8h-55q-12 0 -20 8t-8 20v55q0 12 8 20t20 8h55q12 0 20 -8t8 -20v-55zM278 -194q0 -12 -8 -20t-20 -8h-56q-11 0 -19 8t-8 20v55q0 12 8 20t19 8h56q12 0 20 -8t8 -20v-55z" glyph-name="cedilla" unicode="¸"/>
<glyph d="M500 694q0 -11 -8 -19t-20 -8h-278q-11 0 -19 8t-8 19v56q0 12 8 20t19 8h278q12 0 20 -8t8 -20v-56zM611 361q0 -11 -8 -19.5t-20 -8.5h-55q-12 0 -20 8.5t-8 19.5v278q0 11 8 19.5t20 8.5h55q12 0 20 -8.5t8 -19.5v-278zM167 361q0 -11 -8.5 -19.5t-19.5 -8.5h-56 q-11 0 -19 8.5t-8 19.5v278q0 11 8 19.5t19 8.5h56q11 0 19.5 -8.5t8.5 -19.5v-278zM500 250q0 -12 -8 -20t-20 -8h-278q-11 0 -19 8t-8 20v56q0 11 8 19t19 8h278q12 0 20 -8t8 -19v-56z" glyph-name="ordmasculine" unicode="º"/>
<glyph d="M389 583q0 -11 -8 -19t-20 -8h-55q-12 0 -20 8t-8 19v56q0 11 8 19.5t20 8.5h55q12 0 20 -8.5t8 -19.5v-56zM500 472q0 -11 -8 -19.5t-20 -8.5h-55q-12 0 -20 8.5t-8 19.5v56q0 11 8 19.5t20 8.5h55q12 0 20 -8.5t8 -19.5v-56zM611 361q0 -11 -8 -19.5t-20 -8.5h-55 q-12 0 -20 8.5t-8 19.5v56q0 11 8 19t20 8h55q12 0 20 -8t8 -19v-56zM278 694q0 -11 -8 -19t-20 -8h-56q-11 0 -19 8t-8 19v56q0 12 8 20t19 8h56q12 0 20 -8t8 -20v-56zM500 250q0 -12 -8 -20t-20 -8h-55q-12 0 -20 8t-8 20v56q0 11 8 19t20 8h55q12 0 20 -8t8 -19v-56z M167 472q0 -11 -8.5 -19.5t-19.5 -8.5h-56q-11 0 -19 8.5t-8 19.5v56q0 11 8 19.5t19 8.5h56q11 0 19.5 -8.5t8.5 -19.5v-56zM278 361q0 -11 -8 -19.5t-20 -8.5h-56q-11 0 -19 8.5t-8 19.5v56q0 11 8 19t19 8h56q12 0 20 -8t8 -19v-56zM389 139q0 -12 -8 -20t-20 -8h-55 q-12 0 -20 8t-8 20v55q0 12 8 20t20 8h55q12 0 20 -8t8 -20v-55zM167 250q0 -12 -8.5 -20t-19.5 -8h-56q-11 0 -19 8t-8 20v56q0 11 8 19t19 8h56q11 0 19.5 -8t8.5 -19v-56zM278 28q0 -12 -8 -20t-20 -8h-56q-11 0 -19 8t-8 20v55q0 12 8 20t19 8h56q12 0 20 -8t8 -20v-55z " glyph-name="guillemotright" unicode="»"/>
<glyph d="M389 694q0 -11 -8 -19t-20 -8h-55q-12 0 -20 8t-8 19v56q0 12 8 20t20 8h55q12 0 20 -8t8 -20v-56zM389 472q0 -11 -8 -19.5t-20 -8.5h-55q-12 0 -20 8.5t-8 19.5v56q0 11 8 19.5t20 8.5h55q12 0 20 -8.5t8 -19.5v-56zM611 139q0 -12 -8 -20t-20 -8h-55q-12 0 -20 8 t-8 20v55q0 12 8 20t20 8h55q12 0 20 -8t8 -20v-55zM278 361q0 -11 -8 -19.5t-20 -8.5h-56q-11 0 -19 8.5t-8 19.5v56q0 11 8 19t19 8h56q12 0 20 -8t8 -19v-56zM500 28q0 -12 -8 -20t-20 -8h-278q-11 0 -19 8t-8 20v55q0 12 8 20t19 8h278q12 0 20 -8t8 -20v-55zM167 139 q0 -12 -8.5 -20t-19.5 -8h-56q-11 0 -19 8t-8 20v167q0 11 8 19t19 8h56q11 0 19.5 -8t8.5 -19v-167z" glyph-name="questiondown" unicode="¿"/>
<glyph d="M278 917q0 -12 -8 -20t-20 -8h-56q-11 0 -19 8t-8 20v55q0 12 8 20t19 8h56q12 0 20 -8t8 -20v-55zM500 694q0 -11 -8 -19t-20 -8h-278q-11 0 -19 8t-8 19v56q0 12 8 20t19 8h84v83q0 12 8 20t20 8h55q12 0 20 -8t8 -20v-83h83q12 0 20 -8t8 -20v-56zM611 28 q0 -12 -8 -20t-20 -8h-55q-12 0 -20 8t-8 20v305h-333v-305q0 -12 -8.5 -20t-19.5 -8h-56q-11 0 -19 8t-8 20v611q0 11 8 19.5t19 8.5h56q11 0 19.5 -8.5t8.5 -19.5v-195h333v195q0 11 8 19.5t20 8.5h55q12 0 20 -8.5t8 -19.5v-611z" glyph-name="Agrave" unicode="À"/>
<glyph d="M500 917q0 -12 -8 -20t-20 -8h-55q-12 0 -20 8t-8 20v55q0 12 8 20t20 8h55q12 0 20 -8t8 -20v-55zM500 694q0 -11 -8 -19t-20 -8h-278q-11 0 -19 8t-8 19v56q0 12 8 20t19 8h84v83q0 12 8 20t20 8h55q12 0 20 -8t8 -20v-83h83q12 0 20 -8t8 -20v-56zM611 28 q0 -12 -8 -20t-20 -8h-55q-12 0 -20 8t-8 20v305h-333v-305q0 -12 -8.5 -20t-19.5 -8h-56q-11 0 -19 8t-8 20v611q0 11 8 19.5t19 8.5h56q11 0 19.5 -8.5t8.5 -19.5v-195h333v195q0 11 8 19.5t20 8.5h55q12 0 20 -8.5t8 -19.5v-611z" glyph-name="Aacute" unicode="Á"/>
<glyph d="M389 917q0 -12 -8 -20t-20 -8h-55q-12 0 -20 8t-8 20v55q0 12 8 20t20 8h55q12 0 20 -8t8 -20v-55zM500 694q0 -11 -8 -19t-20 -8h-278q-11 0 -19 8t-8 19v167q0 12 8 20t19 8h56q11 0 19.5 -8t8.5 -20v-83h111v83q0 12 8 20t20 8h55q12 0 20 -8t8 -20v-167zM611 28 q0 -12 -8 -20t-20 -8h-55q-12 0 -20 8t-8 20v305h-333v-305q0 -12 -8.5 -20t-19.5 -8h-56q-11 0 -19 8t-8 20v611q0 11 8 19.5t19 8.5h56q11 0 19.5 -8.5t8.5 -19.5v-195h333v195q0 11 8 19.5t20 8.5h55q12 0 20 -8.5t8 -19.5v-611z" glyph-name="Acircumflex" unicode="Â"/>
<glyph d="M611 806q0 -12 -8 -20t-20 -8h-55q-12 0 -20 8t-8 20v55q0 12 8 20t20 8h55q12 0 20 -8t8 -20v-55zM278 917q0 -12 -8 -20t-20 -8h-56q-11 0 -19 8t-8 20v55q0 12 8 20t19 8h56q12 0 20 -8t8 -20v-55zM500 694q0 -11 -8 -19t-20 -8h-278q-11 0 -19 8t-8 19v56q0 12 8 20 t19 8h84v83q0 12 8 20t20 8h55q12 0 20 -8t8 -20v-83h83q12 0 20 -8t8 -20v-56zM167 806q0 -12 -8.5 -20t-19.5 -8h-56q-11 0 -19 8t-8 20v55q0 12 8 20t19 8h56q11 0 19.5 -8t8.5 -20v-55zM611 28q0 -12 -8 -20t-20 -8h-55q-12 0 -20 8t-8 20v305h-333v-305q0 -12 -8.5 -20 t-19.5 -8h-56q-11 0 -19 8t-8 20v611q0 11 8 19.5t19 8.5h56q11 0 19.5 -8.5t8.5 -19.5v-195h333v195q0 11 8 19.5t20 8.5h55q12 0 20 -8.5t8 -19.5v-611z" glyph-name="Atilde" unicode="Ã"/>
<glyph d="M500 917q0 -12 -8 -20t-20 -8h-55q-12 0 -20 8t-8 20v55q0 12 8 20t20 8h55q12 0 20 -8t8 -20v-55zM278 917q0 -12 -8 -20t-20 -8h-56q-11 0 -19 8t-8 20v55q0 12 8 20t19 8h56q12 0 20 -8t8 -20v-55zM500 694q0 -11 -8 -19t-20 -8h-278q-11 0 -19 8t-8 19v56q0 12 8 20 t19 8h278q12 0 20 -8t8 -20v-56zM611 28q0 -12 -8 -20t-20 -8h-55q-12 0 -20 8t-8 20v305h-333v-305q0 -12 -8.5 -20t-19.5 -8h-56q-11 0 -19 8t-8 20v611q0 11 8 19.5t19 8.5h56q11 0 19.5 -8.5t8.5 -19.5v-195h333v195q0 11 8 19.5t20 8.5h55q12 0 20 -8.5t8 -19.5v-611z " glyph-name="Adieresis" unicode="Ä"/>
<glyph d="M500 694q0 -11 -8 -19t-20 -8h-278q-11 0 -19 8t-8 19v56q0 12 8 20t19 8h278q12 0 20 -8t8 -20v-56zM611 28q0 -12 -8 -20t-20 -8h-55q-12 0 -20 8t-8 20v305h-333v-305q0 -12 -8.5 -20t-19.5 -8h-56q-11 0 -19 8t-8 20v611q0 11 8 19.5t19 8.5h56q11 0 19.5 -8.5 t8.5 -19.5v-195h333v195q0 11 8 19.5t20 8.5h55q12 0 20 -8.5t8 -19.5v-611z" glyph-name="Aring" unicode="Å"/>
<glyph d="M611 28q0 -12 -8 -20t-20 -8h-277q-12 0 -20 8t-8 20v305h-111v-305q0 -12 -8.5 -20t-19.5 -8h-56q-11 0 -19 8t-8 20v611q0 11 8 19.5t19 8.5h56q11 0 19.5 -8.5t8.5 -19.5v-195h111v223h-84q-11 0 -19 8t-8 19v56q0 11 8 19.5t19 8.5h389q12 0 20 -8.5t8 -19.5v-56 q0 -11 -8 -19t-20 -8h-194v-223h83q12 0 20 -8t8 -19v-56q0 -11 -8 -19.5t-20 -8.5h-83v-222h194q12 0 20 -8t8 -20v-55z" glyph-name="AE" unicode="Æ"/>
<glyph d="M611 583q0 -11 -8 -19t-20 -8h-55q-12 0 -20 8t-8 19v56q0 11 8 19.5t20 8.5h55q12 0 20 -8.5t8 -19.5v-56zM500 694q0 -11 -8 -19t-20 -8h-278q-11 0 -19 8t-8 19v56q0 12 8 20t19 8h278q12 0 20 -8t8 -20v-56zM611 139q0 -12 -8 -20t-20 -8h-55q-12 0 -20 8t-8 20v55 q0 12 8 20t20 8h55q12 0 20 -8t8 -20v-55zM167 139q0 -12 -8.5 -20t-19.5 -8h-56q-11 0 -19 8t-8 20v500q0 11 8 19.5t19 8.5h56q11 0 19.5 -8.5t8.5 -19.5v-500zM500 28q0 -12 -8 -20t-20 -8h-83v-83q0 -12 -8 -20t-20 -8h-55q-12 0 -20 8t-8 20v83h-84q-11 0 -19 8t-8 20 v55q0 12 8 20t19 8h278q12 0 20 -8t8 -20v-55zM278 -194q0 -12 -8 -20t-20 -8h-56q-11 0 -19 8t-8 20v55q0 12 8 20t19 8h56q12 0 20 -8t8 -20v-55z" glyph-name="Ccedilla" unicode="Ç"/>
<glyph d="M278 916q0 -11 -8 -19t-20 -8h-56q-11 0 -19 8t-8 19v56q0 12 8 20t19 8h56q12 0 20 -8t8 -20v-56zM611 28q0 -12 -8 -20t-20 -8h-500q-11 0 -19 8t-8 20v722q0 12 8 20t19 8h195v83q0 11 8 19.5t20 8.5h55q12 0 20 -8.5t8 -19.5v-83h194q12 0 20 -8t8 -20v-56 q0 -11 -8 -19t-20 -8h-416v-223h305q12 0 20 -8t8 -19v-56q0 -11 -8 -19.5t-20 -8.5h-305v-222h416q12 0 20 -8t8 -20v-55z" glyph-name="Egrave" unicode="È"/>
<glyph d="M500 917q0 -12 -8 -20t-20 -8h-55q-12 0 -20 8t-8 20v55q0 12 8 20t20 8h55q12 0 20 -8t8 -20v-55zM611 28q0 -12 -8 -20t-20 -8h-500q-11 0 -19 8t-8 20v722q0 12 8 20t19 8h195v83q0 12 8 20t20 8h55q12 0 20 -8t8 -20v-83h194q12 0 20 -8t8 -20v-56q0 -11 -8 -19 t-20 -8h-416v-223h305q12 0 20 -8t8 -19v-56q0 -11 -8 -19.5t-20 -8.5h-305v-222h416q12 0 20 -8t8 -20v-55z" glyph-name="Eacute" unicode="É"/>
<glyph d="M389 917q0 -12 -8 -20t-20 -8h-55q-12 0 -20 8t-8 20v55q0 12 8 20t20 8h55q12 0 20 -8t8 -20v-55zM611 28q0 -12 -8 -20t-20 -8h-500q-11 0 -19 8t-8 20v722q0 12 8 20t19 8h84v83q0 12 8 20t19 8h56q12 0 20 -8t8 -20v-83h111v83q0 12 8 20t20 8h55q12 0 20 -8t8 -20 v-83h83q12 0 20 -8t8 -20v-56q0 -11 -8 -19t-20 -8h-416v-223h305q12 0 20 -8t8 -19v-56q0 -11 -8 -19.5t-20 -8.5h-305v-222h416q12 0 20 -8t8 -20v-55z" glyph-name="Ecircumflex" unicode="Ê"/>
<glyph d="M500 917q0 -12 -8 -20t-20 -8h-55q-12 0 -20 8t-8 20v55q0 12 8 20t20 8h55q12 0 20 -8t8 -20v-55zM278 917q0 -12 -8 -20t-20 -8h-56q-11 0 -19 8t-8 20v55q0 12 8 20t19 8h56q12 0 20 -8t8 -20v-55zM611 28q0 -12 -8 -20t-20 -8h-500q-11 0 -19 8t-8 20v722q0 12 8 20 t19 8h500q12 0 20 -8t8 -20v-56q0 -11 -8 -19t-20 -8h-416v-223h305q12 0 20 -8t8 -19v-56q0 -11 -8 -19.5t-20 -8.5h-305v-222h416q12 0 20 -8t8 -20v-55z" glyph-name="Edieresis" unicode="Ë"/>
<glyph d="M278 917q0 -12 -8 -20t-20 -8h-56q-11 0 -19 8t-8 20v55q0 12 8 20t19 8h56q12 0 20 -8t8 -20v-55zM611 28q0 -12 -8 -20t-20 -8h-500q-11 0 -19 8t-8 20v55q0 12 8 20t19 8h195v556h-84q-11 0 -19 8t-8 19v56q0 12 8 20t19 8h84v83q0 12 8 20t20 8h55q12 0 20 -8t8 -20 v-83h83q12 0 20 -8t8 -20v-56q0 -11 -8 -19t-20 -8h-83v-556h194q12 0 20 -8t8 -20v-55z" glyph-name="Igrave" unicode="Ì"/>
<glyph d="M500 917q0 -12 -8 -20t-20 -8h-55q-12 0 -20 8t-8 20v55q0 12 8 20t20 8h55q12 0 20 -8t8 -20v-55zM611 28q0 -12 -8 -20t-20 -8h-500q-11 0 -19 8t-8 20v55q0 12 8 20t19 8h195v556h-84q-11 0 -19 8t-8 19v56q0 12 8 20t19 8h84v83q0 12 8 20t20 8h55q12 0 20 -8t8 -20 v-83h83q12 0 20 -8t8 -20v-56q0 -11 -8 -19t-20 -8h-83v-556h194q12 0 20 -8t8 -20v-55z" glyph-name="Iacute" unicode="Í"/>
<glyph d="M389 917q0 -12 -8 -20t-20 -8h-55q-12 0 -20 8t-8 20v55q0 12 8 20t20 8h55q12 0 20 -8t8 -20v-55zM611 28q0 -12 -8 -20t-20 -8h-500q-11 0 -19 8t-8 20v55q0 12 8 20t19 8h195v556h-84q-11 0 -19 8t-8 19v167q0 12 8 20t19 8h56q11 0 19.5 -8t8.5 -20v-83h111v83 q0 12 8 20t20 8h55q12 0 20 -8t8 -20v-167q0 -11 -8 -19t-20 -8h-83v-556h194q12 0 20 -8t8 -20v-55z" glyph-name="Icircumflex" unicode="Î"/>
<glyph d="M500 917q0 -12 -8 -20t-20 -8h-55q-12 0 -20 8t-8 20v55q0 12 8 20t20 8h55q12 0 20 -8t8 -20v-55zM278 917q0 -12 -8 -20t-20 -8h-56q-11 0 -19 8t-8 20v55q0 12 8 20t19 8h56q12 0 20 -8t8 -20v-55zM611 28q0 -12 -8 -20t-20 -8h-500q-11 0 -19 8t-8 20v55q0 12 8 20 t19 8h195v556h-84q-11 0 -19 8t-8 19v56q0 12 8 20t19 8h278q12 0 20 -8t8 -20v-56q0 -11 -8 -19t-20 -8h-83v-556h194q12 0 20 -8t8 -20v-55z" glyph-name="Idieresis" unicode="Ï"/>
<glyph d="M611 139q0 -12 -8 -20t-20 -8h-55q-12 0 -20 8t-8 20v500q0 11 8 19.5t20 8.5h55q12 0 20 -8.5t8 -19.5v-500zM500 28q0 -12 -8 -20t-20 -8h-389q-11 0 -19 8t-8 20v722q0 12 8 20t19 8h389q12 0 20 -8t8 -20v-56q0 -11 -8 -19t-20 -8h-305v-223h194q12 0 20 -8t8 -19 v-56q0 -11 -8 -19.5t-20 -8.5h-194v-222h305q12 0 20 -8t8 -20v-55z" glyph-name="Eth" unicode="Ð"/>
<glyph d="M278 917q0 -12 -8.5 -20t-19.5 -8h-56q-11 0 -19 8t-8 20v55q0 12 8 20t19 8h56q11 0 19.5 -8t8.5 -20v-55zM389 806q0 -12 -8 -20t-20 -8h-55q-12 0 -20 8t-8 20v55q0 12 8 20t20 8h55q12 0 20 -8t8 -20v-55zM611 28q0 -12 -8 -20t-20 -8h-55q-12 0 -20 8t-8 20v194h-83 q-12 0 -20 8.5t-8 19.5v56q0 11 8 19t20 8h83v334h-83q-12 0 -20 8t-8 19v56q0 11 8 19.5t20 8.5h83v83q0 12 8 20t20 8h55q12 0 20 -8t8 -20v-833zM389 361q0 -11 -8 -19.5t-20 -8.5h-55q-12 0 -20 8.5t-8 19.5v56q0 11 8 19t20 8h55q12 0 20 -8t8 -19v-56zM278 472 q0 -11 -8.5 -19.5t-19.5 -8.5h-83v-416q0 -12 -8.5 -20t-19.5 -8h-56q-11 0 -19 8t-8 20v833q0 12 8 20t19 8h56q11 0 19.5 -8t8.5 -20v-305h83q11 0 19.5 -8.5t8.5 -19.5v-56z" glyph-name="Ntilde" unicode="Ñ"/>
<glyph d="M278 917q0 -12 -8 -20t-20 -8h-56q-11 0 -19 8t-8 20v55q0 12 8 20t19 8h56q12 0 20 -8t8 -20v-55zM500 694q0 -11 -8 -19t-20 -8h-278q-11 0 -19 8t-8 19v56q0 12 8 20t19 8h84v83q0 12 8 20t20 8h55q12 0 20 -8t8 -20v-83h83q12 0 20 -8t8 -20v-56zM611 139 q0 -12 -8 -20t-20 -8h-55q-12 0 -20 8t-8 20v500q0 11 8 19.5t20 8.5h55q12 0 20 -8.5t8 -19.5v-500zM167 139q0 -12 -8.5 -20t-19.5 -8h-56q-11 0 -19 8t-8 20v500q0 11 8 19.5t19 8.5h56q11 0 19.5 -8.5t8.5 -19.5v-500zM500 28q0 -12 -8 -20t-20 -8h-278q-11 0 -19 8 t-8 20v55q0 12 8 20t19 8h278q12 0 20 -8t8 -20v-55z" glyph-name="Ograve" unicode="Ò"/>
<glyph d="M500 917q0 -12 -8 -20t-20 -8h-55q-12 0 -20 8t-8 20v55q0 12 8 20t20 8h55q12 0 20 -8t8 -20v-55zM500 694q0 -11 -8 -19t-20 -8h-278q-11 0 -19 8t-8 19v56q0 12 8 20t19 8h84v83q0 12 8 20t20 8h55q12 0 20 -8t8 -20v-83h83q12 0 20 -8t8 -20v-56zM611 139 q0 -12 -8 -20t-20 -8h-55q-12 0 -20 8t-8 20v500q0 11 8 19.5t20 8.5h55q12 0 20 -8.5t8 -19.5v-500zM167 139q0 -12 -8.5 -20t-19.5 -8h-56q-11 0 -19 8t-8 20v500q0 11 8 19.5t19 8.5h56q11 0 19.5 -8.5t8.5 -19.5v-500zM500 28q0 -12 -8 -20t-20 -8h-278q-11 0 -19 8 t-8 20v55q0 12 8 20t19 8h278q12 0 20 -8t8 -20v-55z" glyph-name="Oacute" unicode="Ó"/>
<glyph d="M389 917q0 -12 -8 -20t-20 -8h-55q-12 0 -20 8t-8 20v55q0 12 8 20t20 8h55q12 0 20 -8t8 -20v-55zM500 694q0 -11 -8 -19t-20 -8h-278q-11 0 -19 8t-8 19v167q0 12 8 20t19 8h56q11 0 19.5 -8t8.5 -20v-83h111v83q0 12 8 20t20 8h55q12 0 20 -8t8 -20v-167zM611 139 q0 -12 -8 -20t-20 -8h-55q-12 0 -20 8t-8 20v500q0 11 8 19.5t20 8.5h55q12 0 20 -8.5t8 -19.5v-500zM167 139q0 -12 -8.5 -20t-19.5 -8h-56q-11 0 -19 8t-8 20v500q0 11 8 19.5t19 8.5h56q11 0 19.5 -8.5t8.5 -19.5v-500zM500 28q0 -12 -8 -20t-20 -8h-278q-11 0 -19 8 t-8 20v55q0 12 8 20t19 8h278q12 0 20 -8t8 -20v-55z" glyph-name="Ocircumflex" unicode="Ô"/>
<glyph d="M611 806q0 -12 -8 -20t-20 -8h-55q-12 0 -20 8t-8 20v55q0 12 8 20t20 8h55q12 0 20 -8t8 -20v-55zM278 917q0 -12 -8 -20t-20 -8h-56q-11 0 -19 8t-8 20v55q0 12 8 20t19 8h56q12 0 20 -8t8 -20v-55zM500 694q0 -11 -8 -19t-20 -8h-278q-11 0 -19 8t-8 19v56q0 12 8 20 t19 8h84v83q0 12 8 20t20 8h55q12 0 20 -8t8 -20v-83h83q12 0 20 -8t8 -20v-56zM167 806q0 -12 -8.5 -20t-19.5 -8h-56q-11 0 -19 8t-8 20v55q0 12 8 20t19 8h56q11 0 19.5 -8t8.5 -20v-55zM611 139q0 -12 -8 -20t-20 -8h-55q-12 0 -20 8t-8 20v500q0 11 8 19.5t20 8.5h55 q12 0 20 -8.5t8 -19.5v-500zM167 139q0 -12 -8.5 -20t-19.5 -8h-56q-11 0 -19 8t-8 20v500q0 11 8 19.5t19 8.5h56q11 0 19.5 -8.5t8.5 -19.5v-500zM500 28q0 -12 -8 -20t-20 -8h-278q-11 0 -19 8t-8 20v55q0 12 8 20t19 8h278q12 0 20 -8t8 -20v-55z" glyph-name="Otilde" unicode="Õ"/>
<glyph d="M500 917q0 -12 -8 -20t-20 -8h-55q-12 0 -20 8t-8 20v55q0 12 8 20t20 8h55q12 0 20 -8t8 -20v-55zM278 917q0 -12 -8 -20t-20 -8h-56q-11 0 -19 8t-8 20v55q0 12 8 20t19 8h56q12 0 20 -8t8 -20v-55zM500 694q0 -11 -8 -19t-20 -8h-278q-11 0 -19 8t-8 19v56q0 12 8 20 t19 8h278q12 0 20 -8t8 -20v-56zM611 139q0 -12 -8 -20t-20 -8h-55q-12 0 -20 8t-8 20v500q0 11 8 19.5t20 8.5h55q12 0 20 -8.5t8 -19.5v-500zM167 139q0 -12 -8.5 -20t-19.5 -8h-56q-11 0 -19 8t-8 20v500q0 11 8 19.5t19 8.5h56q11 0 19.5 -8.5t8.5 -19.5v-500zM500 28 q0 -12 -8 -20t-20 -8h-278q-11 0 -19 8t-8 20v55q0 12 8 20t19 8h278q12 0 20 -8t8 -20v-55z" glyph-name="Odieresis" unicode="Ö"/>
<glyph d="M611 583q0 -11 -8 -19t-20 -8h-55q-12 0 -20 8t-8 19v56q0 11 8 19.5t20 8.5h55q12 0 20 -8.5t8 -19.5v-56zM500 472q0 -11 -8 -19.5t-20 -8.5h-55q-12 0 -20 8.5t-8 19.5v56q0 11 8 19.5t20 8.5h55q12 0 20 -8.5t8 -19.5v-56zM389 361q0 -11 -8 -19.5t-20 -8.5h-55 q-12 0 -20 8.5t-8 19.5v56q0 11 8 19t20 8h55q12 0 20 -8t8 -19v-56zM500 250q0 -12 -8 -20t-20 -8h-55q-12 0 -20 8t-8 20v56q0 11 8 19t20 8h55q12 0 20 -8t8 -19v-56zM611 139q0 -12 -8 -20t-20 -8h-55q-12 0 -20 8t-8 20v55q0 12 8 20t20 8h55q12 0 20 -8t8 -20v-55z M278 472q0 -11 -8 -19.5t-20 -8.5h-56q-11 0 -19 8.5t-8 19.5v56q0 11 8 19.5t19 8.5h56q12 0 20 -8.5t8 -19.5v-56zM167 583q0 -11 -8.5 -19t-19.5 -8h-56q-11 0 -19 8t-8 19v56q0 11 8 19.5t19 8.5h56q11 0 19.5 -8.5t8.5 -19.5v-56zM278 250q0 -12 -8 -20t-20 -8h-56 q-11 0 -19 8t-8 20v56q0 11 8 19t19 8h56q12 0 20 -8t8 -19v-56zM167 139q0 -12 -8.5 -20t-19.5 -8h-56q-11 0 -19 8t-8 20v55q0 12 8 20t19 8h56q11 0 19.5 -8t8.5 -20v-55z" glyph-name="multiply" unicode="×"/>
<glyph d="M500 694q0 -11 -8 -19t-20 -8h-278q-11 0 -19 8t-8 19v56q0 12 8 20t19 8h278q12 0 20 -8t8 -20v-56zM611 139q0 -12 -8 -20t-20 -8h-55q-12 0 -20 8t-8 20v305h-83q-12 0 -20 8.5t-8 19.5v56q0 11 8 19.5t20 8.5h83v83q0 11 8 19.5t20 8.5h55q12 0 20 -8.5t8 -19.5v-500 zM389 361q0 -11 -8 -19.5t-20 -8.5h-55q-12 0 -20 8.5t-8 19.5v56q0 11 8 19t20 8h55q12 0 20 -8t8 -19v-56zM278 250q0 -12 -8 -20t-20 -8h-83v-83q0 -12 -8.5 -20t-19.5 -8h-56q-11 0 -19 8t-8 20v500q0 11 8 19.5t19 8.5h56q11 0 19.5 -8.5t8.5 -19.5v-306h83q12 0 20 -8 t8 -19v-56zM500 28q0 -12 -8 -20t-20 -8h-278q-11 0 -19 8t-8 20v55q0 12 8 20t19 8h278q12 0 20 -8t8 -20v-55z" glyph-name="Oslash" unicode="Ø"/>
<glyph d="M278 917q0 -12 -8 -20t-20 -8h-56q-11 0 -19 8t-8 20v55q0 12 8 20t19 8h56q12 0 20 -8t8 -20v-55zM389 806q0 -12 -8 -20t-20 -8h-55q-12 0 -20 8t-8 20v55q0 12 8 20t20 8h55q12 0 20 -8t8 -20v-55zM611 139q0 -12 -8 -20t-20 -8h-55q-12 0 -20 8t-8 20v611q0 12 8 20 t20 8h55q12 0 20 -8t8 -20v-611zM167 139q0 -12 -8.5 -20t-19.5 -8h-56q-11 0 -19 8t-8 20v611q0 12 8 20t19 8h56q11 0 19.5 -8t8.5 -20v-611zM500 28q0 -12 -8 -20t-20 -8h-278q-11 0 -19 8t-8 20v55q0 12 8 20t19 8h278q12 0 20 -8t8 -20v-55z" glyph-name="Ugrave" unicode="Ù"/>
<glyph d="M500 917q0 -12 -8 -20t-20 -8h-55q-12 0 -20 8t-8 20v55q0 12 8 20t20 8h55q12 0 20 -8t8 -20v-55zM389 806q0 -12 -8 -20t-20 -8h-55q-12 0 -20 8t-8 20v55q0 12 8 20t20 8h55q12 0 20 -8t8 -20v-55zM611 139q0 -12 -8 -20t-20 -8h-55q-12 0 -20 8t-8 20v611q0 12 8 20 t20 8h55q12 0 20 -8t8 -20v-611zM167 139q0 -12 -8.5 -20t-19.5 -8h-56q-11 0 -19 8t-8 20v611q0 12 8 20t19 8h56q11 0 19.5 -8t8.5 -20v-611zM500 28q0 -12 -8 -20t-20 -8h-278q-11 0 -19 8t-8 20v55q0 12 8 20t19 8h278q12 0 20 -8t8 -20v-55z" glyph-name="Uacute" unicode="Ú"/>
<glyph d="M389 917q0 -12 -8 -20t-20 -8h-55q-12 0 -20 8t-8 20v55q0 12 8 20t20 8h55q12 0 20 -8t8 -20v-55zM500 806q0 -12 -8 -20t-20 -8h-55q-12 0 -20 8t-8 20v55q0 12 8 20t20 8h55q12 0 20 -8t8 -20v-55zM278 806q0 -12 -8 -20t-20 -8h-56q-11 0 -19 8t-8 20v55q0 12 8 20 t19 8h56q12 0 20 -8t8 -20v-55zM611 139q0 -12 -8 -20t-20 -8h-55q-12 0 -20 8t-8 20v611q0 12 8 20t20 8h55q12 0 20 -8t8 -20v-611zM167 139q0 -12 -8.5 -20t-19.5 -8h-56q-11 0 -19 8t-8 20v611q0 12 8 20t19 8h56q11 0 19.5 -8t8.5 -20v-611zM500 28q0 -12 -8 -20 t-20 -8h-278q-11 0 -19 8t-8 20v55q0 12 8 20t19 8h278q12 0 20 -8t8 -20v-55z" glyph-name="Ucircumflex" unicode="Û"/>
<glyph d="M500 917q0 -12 -8 -20t-20 -8h-55q-12 0 -20 8t-8 20v55q0 12 8 20t20 8h55q12 0 20 -8t8 -20v-55zM278 917q0 -12 -8 -20t-20 -8h-56q-11 0 -19 8t-8 20v55q0 12 8 20t19 8h56q12 0 20 -8t8 -20v-55zM611 139q0 -12 -8 -20t-20 -8h-55q-12 0 -20 8t-8 20v611q0 12 8 20 t20 8h55q12 0 20 -8t8 -20v-611zM167 139q0 -12 -8.5 -20t-19.5 -8h-56q-11 0 -19 8t-8 20v611q0 12 8 20t19 8h56q11 0 19.5 -8t8.5 -20v-611zM500 28q0 -12 -8 -20t-20 -8h-278q-11 0 -19 8t-8 20v55q0 12 8 20t19 8h278q12 0 20 -8t8 -20v-55z" glyph-name="Udieresis" unicode="Ü"/>
<glyph d="M500 917q0 -12 -8 -20t-20 -8h-55q-12 0 -20 8t-8 20v55q0 12 8 20t20 8h55q12 0 20 -8t8 -20v-55zM611 583q0 -11 -8 -19t-20 -8h-55q-12 0 -20 8t-8 19v167q0 12 8 20t20 8h55q12 0 20 -8t8 -20v-167zM389 806q0 -12 -8 -20t-20 -8h-55q-12 0 -20 8t-8 20v55q0 12 8 20 t20 8h55q12 0 20 -8t8 -20v-55zM500 472q0 -11 -8 -19.5t-20 -8.5h-55q-12 0 -20 8.5t-8 19.5v56q0 11 8 19.5t20 8.5h55q12 0 20 -8.5t8 -19.5v-56zM167 583q0 -11 -8.5 -19t-19.5 -8h-56q-11 0 -19 8t-8 19v167q0 12 8 20t19 8h56q11 0 19.5 -8t8.5 -20v-167zM278 472 q0 -11 -8 -19.5t-20 -8.5h-56q-11 0 -19 8.5t-8 19.5v56q0 11 8 19.5t19 8.5h56q12 0 20 -8.5t8 -19.5v-56zM389 28q0 -12 -8 -20t-20 -8h-55q-12 0 -20 8t-8 20v389q0 11 8 19t20 8h55q12 0 20 -8t8 -19v-389z" glyph-name="Yacute" unicode="Ý"/>
<glyph d="M611 361q0 -11 -8 -19.5t-20 -8.5h-55q-12 0 -20 8.5t-8 19.5v167q0 11 8 19.5t20 8.5h55q12 0 20 -8.5t8 -19.5v-167zM500 250q0 -11 -8 -19.5t-20 -8.5h-305v-194q0 -12 -8.5 -20t-19.5 -8h-56q-11 0 -19 8t-8 20v722q0 11 8 19.5t19 8.5h56q11 0 19.5 -8.5t8.5 -19.5 v-83h305q12 0 20 -8.5t8 -19.5v-56q0 -11 -8 -19t-20 -8h-305v-223h305q12 0 20 -8t8 -19v-56z" glyph-name="Thorn" unicode="Þ"/>
<glyph d="M500 583q0 -11 -8 -19t-20 -8h-55q-12 0 -20 8t-8 19v56q0 11 8 19.5t20 8.5h55q12 0 20 -8.5t8 -19.5v-56zM389 694q0 -11 -8 -19t-20 -8h-167q-11 0 -19 8t-8 19v56q0 11 8 19.5t19 8.5h167q12 0 20 -8.5t8 -19.5v-56zM500 361q0 -11 -8 -19.5t-20 -8.5h-166 q-12 0 -20 8.5t-8 19.5v167q0 11 8 19.5t20 8.5h55q12 0 20 -8.5t8 -19.5v-84h83q12 0 20 -8t8 -19v-56zM611 139q0 -12 -8 -20t-20 -8h-55q-12 0 -20 8t-8 20v167q0 11 8 19t20 8h55q12 0 20 -8t8 -19v-167zM167 28q0 -12 -8.5 -20t-19.5 -8h-56q-11 0 -19 8t-8 20v611 q0 11 8 19.5t19 8.5h56q11 0 19.5 -8.5t8.5 -19.5v-611zM500 28q0 -12 -8 -20t-20 -8h-166q-12 0 -20 8t-8 20v55q0 12 8 20t20 8h166q12 0 20 -8t8 -20v-55z" glyph-name="germandbls" unicode="ß"/>
<glyph d="M278 694q0 -11 -8 -19t-20 -8h-56q-11 0 -19 8t-8 19v56q0 12 8 20t19 8h56q12 0 20 -8t8 -20v-56zM500 472q0 -11 -8 -19.5t-20 -8.5h-278q-11 0 -19 8.5t-8 19.5v56q0 11 8 19.5t19 8.5h84v83q0 11 8 19.5t20 8.5h55q12 0 20 -8.5t8 -19.5v-83h83q12 0 20 -8.5t8 -19.5 v-56zM611 28q0 -12 -8 -20t-20 -8h-389q-11 0 -19 8t-8 20v55q0 12 8 20t19 8h306v111h-306q-11 0 -19 8t-8 20v56q0 11 8 19t19 8h306v84q0 11 8 19t20 8h55q12 0 20 -8t8 -19v-389zM167 139q0 -12 -8.5 -20t-19.5 -8h-56q-11 0 -19 8t-8 20v55q0 12 8 20t19 8h56 q11 0 19.5 -8t8.5 -20v-55z" glyph-name="agrave" unicode="à"/>
<glyph d="M500 694q0 -11 -8 -19t-20 -8h-55q-12 0 -20 8t-8 19v56q0 12 8 20t20 8h55q12 0 20 -8t8 -20v-56zM500 472q0 -11 -8 -19.5t-20 -8.5h-278q-11 0 -19 8.5t-8 19.5v56q0 11 8 19.5t19 8.5h84v83q0 11 8 19.5t20 8.5h55q12 0 20 -8.5t8 -19.5v-83h83q12 0 20 -8.5t8 -19.5 v-56zM611 28q0 -12 -8 -20t-20 -8h-389q-11 0 -19 8t-8 20v55q0 12 8 20t19 8h306v111h-306q-11 0 -19 8t-8 20v56q0 11 8 19t19 8h306v84q0 11 8 19t20 8h55q12 0 20 -8t8 -19v-389zM167 139q0 -12 -8.5 -20t-19.5 -8h-56q-11 0 -19 8t-8 20v55q0 12 8 20t19 8h56 q11 0 19.5 -8t8.5 -20v-55z" glyph-name="aacute" unicode="á"/>
<glyph d="M389 694q0 -11 -8 -19t-20 -8h-55q-12 0 -20 8t-8 19v56q0 11 8 19.5t20 8.5h55q12 0 20 -8.5t8 -19.5v-56zM500 472q0 -11 -8 -19.5t-20 -8.5h-278q-11 0 -19 8.5t-8 19.5v167q0 11 8 19.5t19 8.5h56q11 0 19.5 -8.5t8.5 -19.5v-83h111v83q0 11 8 19.5t20 8.5h55 q12 0 20 -8.5t8 -19.5v-167zM611 28q0 -12 -8 -20t-20 -8h-389q-11 0 -19 8t-8 20v55q0 12 8 20t19 8h306v111h-306q-11 0 -19 8.5t-8 19.5v56q0 11 8 19t19 8h306v84q0 11 8 19t20 8h55q12 0 20 -8t8 -19v-389zM167 139q0 -12 -8.5 -20t-19.5 -8h-56q-11 0 -19 8t-8 20v55 q0 12 8 20t19 8h56q11 0 19.5 -8t8.5 -20v-55z" glyph-name="acircumflex" unicode="â"/>
<glyph d="M611 583q0 -11 -8 -19t-20 -8h-55q-12 0 -20 8t-8 19v56q0 11 8 19.5t20 8.5h55q12 0 20 -8.5t8 -19.5v-56zM278 694q0 -11 -8 -19t-20 -8h-56q-11 0 -19 8t-8 19v56q0 12 8 20t19 8h56q12 0 20 -8t8 -20v-56zM500 472q0 -11 -8 -19.5t-20 -8.5h-278q-11 0 -19 8.5 t-8 19.5v56q0 11 8 19.5t19 8.5h84v83q0 11 8 19.5t20 8.5h55q12 0 20 -8.5t8 -19.5v-83h83q12 0 20 -8.5t8 -19.5v-56zM167 583q0 -11 -8.5 -19t-19.5 -8h-56q-11 0 -19 8t-8 19v56q0 11 8 19.5t19 8.5h56q11 0 19.5 -8.5t8.5 -19.5v-56zM611 28q0 -12 -8 -20t-20 -8h-389 q-11 0 -19 8t-8 20v55q0 12 8 20t19 8h306v111h-306q-11 0 -19 8t-8 20v56q0 11 8 19t19 8h306v84q0 11 8 19t20 8h55q12 0 20 -8t8 -19v-389zM167 139q0 -12 -8.5 -20t-19.5 -8h-56q-11 0 -19 8t-8 20v55q0 12 8 20t19 8h56q11 0 19.5 -8t8.5 -20v-55z" glyph-name="atilde" unicode="ã"/>
<glyph d="M500 694q0 -11 -8 -19t-20 -8h-55q-12 0 -20 8t-8 19v56q0 12 8 20t20 8h55q12 0 20 -8t8 -20v-56zM278 694q0 -11 -8 -19t-20 -8h-56q-11 0 -19 8t-8 19v56q0 12 8 20t19 8h56q12 0 20 -8t8 -20v-56zM500 472q0 -11 -8 -19.5t-20 -8.5h-278q-11 0 -19 8.5t-8 19.5v56 q0 11 8 19.5t19 8.5h278q12 0 20 -8.5t8 -19.5v-56zM611 28q0 -12 -8 -20t-20 -8h-389q-11 0 -19 8t-8 20v55q0 12 8 20t19 8h306v111h-306q-11 0 -19 8t-8 20v56q0 11 8 19t19 8h306v84q0 11 8 19t20 8h55q12 0 20 -8t8 -19v-389zM167 139q0 -12 -8.5 -20t-19.5 -8h-56 q-11 0 -19 8t-8 20v55q0 12 8 20t19 8h56q11 0 19.5 -8t8.5 -20v-55z" glyph-name="adieresis" unicode="ä"/>
<glyph d="M389 694q0 -11 -8 -19t-20 -8h-55q-12 0 -20 8t-8 19v56q0 11 8 19.5t20 8.5h55q12 0 20 -8.5t8 -19.5v-56zM500 472q0 -11 -8 -19.5t-20 -8.5h-278q-11 0 -19 8.5t-8 19.5v167q0 11 8 19.5t19 8.5h56q11 0 19.5 -8.5t8.5 -19.5v-83h111v83q0 11 8 19.5t20 8.5h55 q12 0 20 -8.5t8 -19.5v-167zM611 28q0 -12 -8 -20t-20 -8h-389q-11 0 -19 8t-8 20v55q0 12 8 20t19 8h306v111h-306q-11 0 -19 8.5t-8 19.5v56q0 11 8 19t19 8h306v84q0 11 8 19t20 8h55q12 0 20 -8t8 -19v-389zM167 139q0 -12 -8.5 -20t-19.5 -8h-56q-11 0 -19 8t-8 20v55 q0 12 8 20t19 8h56q11 0 19.5 -8t8.5 -20v-55z" glyph-name="aring" unicode="å"/>
<glyph d="M611 28q0 -12 -8 -20t-20 -8h-389q-11 0 -19 8t-8 20v55q0 12 8 20t19 8h84v111h-84q-11 0 -19 8.5t-8 19.5v56q0 11 8 19t19 8h84v111h-84q-11 0 -19 8.5t-8 19.5v56q0 11 8 19.5t19 8.5h278q12 0 20 -8.5t8 -19.5v-56q0 -11 -8 -19.5t-20 -8.5h-83v-111h111v84 q0 11 8 19t20 8h55q12 0 20 -8t8 -19v-167q0 -11 -8 -19.5t-20 -8.5h-194v-111h194q12 0 20 -8t8 -20v-55zM167 139q0 -11 -8.5 -19.5t-19.5 -8.5h-56q-11 0 -19 8.5t-8 19.5v55q0 12 8 20t19 8h56q11 0 19.5 -8t8.5 -20v-55z" glyph-name="ae" unicode="æ"/>
<glyph d="M611 472q0 -11 -8 -19.5t-20 -8.5h-389q-11 0 -19 8.5t-8 19.5v56q0 11 8 19.5t19 8.5h389q12 0 20 -8.5t8 -19.5v-56zM611 28q0 -12 -8 -20t-20 -8h-194v-83q0 -12 -8 -20t-20 -8h-55q-12 0 -20 8t-8 20v83h-84q-11 0 -19 8t-8 20v55q0 12 8 20t19 8h389q12 0 20 -8 t8 -20v-55zM167 139q0 -12 -8.5 -20t-19.5 -8h-56q-11 0 -19 8t-8 20v278q0 11 8 19t19 8h56q11 0 19.5 -8t8.5 -19v-278zM278 -194q0 -12 -8 -20t-20 -8h-56q-11 0 -19 8t-8 20v55q0 12 8 20t19 8h56q12 0 20 -8t8 -20v-55z" glyph-name="ccedilla" unicode="ç"/>
<glyph d="M278 694q0 -11 -8 -19t-20 -8h-56q-11 0 -19 8t-8 19v56q0 12 8 20t19 8h56q12 0 20 -8t8 -20v-56zM500 472q0 -11 -8 -19.5t-20 -8.5h-278q-11 0 -19 8.5t-8 19.5v56q0 11 8 19.5t19 8.5h84v83q0 11 8 19.5t20 8.5h55q12 0 20 -8.5t8 -19.5v-83h83q12 0 20 -8.5t8 -19.5 v-56zM611 250q0 -12 -8 -20t-20 -8h-416v-83q0 -12 -8.5 -20t-19.5 -8h-56q-11 0 -19 8t-8 20v278q0 11 8 19t19 8h56q11 0 19.5 -8t8.5 -19v-84h333v84q0 11 8 19t20 8h55q12 0 20 -8t8 -19v-167zM611 28q0 -12 -8 -20t-20 -8h-389q-11 0 -19 8t-8 20v55q0 12 8 20t19 8 h389q12 0 20 -8t8 -20v-55z" glyph-name="egrave" unicode="è"/>
<glyph d="M500 694q0 -11 -8 -19t-20 -8h-55q-12 0 -20 8t-8 19v56q0 12 8 20t20 8h55q12 0 20 -8t8 -20v-56zM500 472q0 -11 -8 -19.5t-20 -8.5h-278q-11 0 -19 8.5t-8 19.5v56q0 11 8 19.5t19 8.5h84v83q0 11 8 19.5t20 8.5h55q12 0 20 -8.5t8 -19.5v-83h83q12 0 20 -8.5t8 -19.5 v-56zM611 250q0 -12 -8 -20t-20 -8h-416v-83q0 -12 -8.5 -20t-19.5 -8h-56q-11 0 -19 8t-8 20v278q0 11 8 19t19 8h56q11 0 19.5 -8t8.5 -19v-84h333v84q0 11 8 19t20 8h55q12 0 20 -8t8 -19v-167zM611 28q0 -12 -8 -20t-20 -8h-389q-11 0 -19 8t-8 20v55q0 12 8 20t19 8 h389q12 0 20 -8t8 -20v-55z" glyph-name="eacute" unicode="é"/>
<glyph d="M389 694q0 -11 -8 -19t-20 -8h-55q-12 0 -20 8t-8 19v56q0 11 8 19.5t20 8.5h55q12 0 20 -8.5t8 -19.5v-56zM500 472q0 -11 -8 -19.5t-20 -8.5h-278q-11 0 -19 8.5t-8 19.5v167q0 11 8 19.5t19 8.5h56q11 0 19.5 -8.5t8.5 -19.5v-83h111v83q0 11 8 19.5t20 8.5h55 q12 0 20 -8.5t8 -19.5v-167zM611 250q0 -11 -8 -19.5t-20 -8.5h-416v-83q0 -12 -8.5 -20t-19.5 -8h-56q-11 0 -19 8t-8 20v278q0 11 8 19t19 8h56q11 0 19.5 -8t8.5 -19v-84h333v84q0 11 8 19t20 8h55q12 0 20 -8t8 -19v-167zM611 28q0 -12 -8 -20t-20 -8h-389q-11 0 -19 8 t-8 20v55q0 12 8 20t19 8h389q12 0 20 -8t8 -20v-55z" glyph-name="ecircumflex" unicode="ê"/>
<glyph d="M500 694q0 -11 -8 -19t-20 -8h-55q-12 0 -20 8t-8 19v56q0 12 8 20t20 8h55q12 0 20 -8t8 -20v-56zM278 694q0 -11 -8 -19t-20 -8h-56q-11 0 -19 8t-8 19v56q0 12 8 20t19 8h56q12 0 20 -8t8 -20v-56zM500 472q0 -11 -8 -19.5t-20 -8.5h-278q-11 0 -19 8.5t-8 19.5v56 q0 11 8 19.5t19 8.5h278q12 0 20 -8.5t8 -19.5v-56zM611 250q0 -12 -8 -20t-20 -8h-416v-83q0 -12 -8.5 -20t-19.5 -8h-56q-11 0 -19 8t-8 20v278q0 11 8 19t19 8h56q11 0 19.5 -8t8.5 -19v-84h333v84q0 11 8 19t20 8h55q12 0 20 -8t8 -19v-167zM611 28q0 -12 -8 -20t-20 -8 h-389q-11 0 -19 8t-8 20v55q0 12 8 20t19 8h389q12 0 20 -8t8 -20v-55z" glyph-name="edieresis" unicode="ë"/>
<glyph d="M278 694q0 -11 -8.5 -19t-19.5 -8h-56q-11 0 -19 8t-8 19v56q0 11 8 19.5t19 8.5h56q11 0 19.5 -8.5t8.5 -19.5v-56zM611 28q0 -12 -8 -20t-20 -8h-500q-11 0 -19 8t-8 20v55q0 12 8 20t19 8h195v333h-84q-11 0 -19 8.5t-8 19.5v56q0 11 8 19.5t19 8.5h84v83q0 11 8 19.5 t20 8.5h55q12 0 20 -8.5t8 -19.5v-528h194q12 0 20 -8t8 -20v-55z" glyph-name="igrave" unicode="ì"/>
<glyph d="M500 694q0 -11 -8 -19t-20 -8h-55q-12 0 -20 8t-8 19v56q0 11 8 19.5t20 8.5h55q12 0 20 -8.5t8 -19.5v-56zM611 28q0 -12 -8 -20t-20 -8h-500q-11 0 -19 8t-8 20v55q0 12 8 20t19 8h195v333h-84q-11 0 -19 8.5t-8 19.5v56q0 11 8 19.5t19 8.5h84v83q0 11 8 19.5t20 8.5 h55q12 0 20 -8.5t8 -19.5v-528h194q12 0 20 -8t8 -20v-55z" glyph-name="iacute" unicode="í"/>
<glyph d="M389 694q0 -11 -8 -19t-20 -8h-55q-12 0 -20 8t-8 19v56q0 11 8 19.5t20 8.5h55q12 0 20 -8.5t8 -19.5v-56zM500 583q0 -11 -8 -19t-20 -8h-55q-12 0 -20 8t-8 19v56q0 11 8 19.5t20 8.5h55q12 0 20 -8.5t8 -19.5v-56zM611 28q0 -12 -8 -20t-20 -8h-500q-11 0 -19 8 t-8 20v55q0 12 8 20t19 8h195v333h-84q-11 0 -19 8.5t-8 19.5v167q0 11 8 19.5t19 8.5h56q11 0 19.5 -8.5t8.5 -19.5v-83h83q12 0 20 -8.5t8 -19.5v-417h194q12 0 20 -8t8 -20v-55z" glyph-name="icircumflex" unicode="î"/>
<glyph d="M500 694q0 -11 -8 -19t-20 -8h-55q-12 0 -20 8t-8 19v56q0 12 8 20t20 8h55q12 0 20 -8t8 -20v-56zM278 694q0 -11 -8 -19t-20 -8h-56q-11 0 -19 8t-8 19v56q0 12 8 20t19 8h56q12 0 20 -8t8 -20v-56zM611 28q0 -12 -8 -20t-20 -8h-500q-11 0 -19 8t-8 20v55q0 12 8 20 t19 8h195v333h-84q-11 0 -19 8.5t-8 19.5v56q0 11 8 19.5t19 8.5h167q12 0 20 -8.5t8 -19.5v-417h194q12 0 20 -8t8 -20v-55z" glyph-name="idieresis" unicode="ï"/>
<glyph d="M389 694q0 -11 -8 -19t-20 -8h-55q-12 0 -20 8t-8 19v56q0 12 8 20t20 8h55q12 0 20 -8t8 -20v-56zM167 694q0 -11 -8.5 -19t-19.5 -8h-56q-11 0 -19 8t-8 19v56q0 12 8 20t19 8h56q11 0 19.5 -8t8.5 -20v-56zM278 583q0 -11 -8 -19t-20 -8h-56q-11 0 -19 8t-8 19v56 q0 11 8 19.5t19 8.5h56q12 0 20 -8.5t8 -19.5v-56zM611 139q0 -12 -8 -20t-20 -8h-55q-12 0 -20 8t-8 20v167q0 11 8 19t20 8h55q12 0 20 -8t8 -19v-167zM500 361q0 -11 -8 -19.5t-20 -8.5h-278q-11 0 -19 8.5t-8 19.5v56q0 11 8 19t19 8h84v84q0 11 8 19.5t20 8.5h55 q12 0 20 -8.5t8 -19.5v-84h83q12 0 20 -8t8 -19v-56zM167 472q0 -11 -8.5 -19.5t-19.5 -8.5h-56q-11 0 -19 8.5t-8 19.5v56q0 11 8 19.5t19 8.5h56q11 0 19.5 -8.5t8.5 -19.5v-56zM500 28q0 -12 -8 -20t-20 -8h-278q-11 0 -19 8t-8 20v55q0 12 8 20t19 8h278q12 0 20 -8 t8 -20v-55zM167 139q0 -12 -8.5 -20t-19.5 -8h-56q-11 0 -19 8t-8 20v167q0 11 8 19t19 8h56q11 0 19.5 -8t8.5 -19v-167z" glyph-name="eth" unicode="ð"/>
<glyph d="M611 583q0 -11 -8 -19t-20 -8h-55q-12 0 -20 8t-8 19v56q0 11 8 19.5t20 8.5h55q12 0 20 -8.5t8 -19.5v-56zM278 694q0 -11 -8.5 -19t-19.5 -8h-56q-11 0 -19 8t-8 19v56q0 11 8 19.5t19 8.5h56q11 0 19.5 -8.5t8.5 -19.5v-56zM611 28q0 -12 -8 -20t-20 -8h-55 q-12 0 -20 8t-8 20v389q0 11 8 19t20 8h55q12 0 20 -8t8 -19v-389zM500 472q0 -11 -8 -19.5t-20 -8.5h-305v-416q0 -12 -8.5 -20t-19.5 -8h-56q-11 0 -19 8t-8 20v611q0 11 8 19.5t19 8.5h56q11 0 19.5 -8.5t8.5 -19.5v-83h111v83q0 11 8 19.5t20 8.5h55q12 0 20 -8.5 t8 -19.5v-83h83q12 0 20 -8.5t8 -19.5v-56z" glyph-name="ntilde" unicode="ñ"/>
<glyph d="M278 694q0 -11 -8 -19t-20 -8h-56q-11 0 -19 8t-8 19v56q0 12 8 20t19 8h56q12 0 20 -8t8 -20v-56zM500 472q0 -11 -8 -19.5t-20 -8.5h-278q-11 0 -19 8.5t-8 19.5v56q0 11 8 19.5t19 8.5h84v83q0 11 8 19.5t20 8.5h55q12 0 20 -8.5t8 -19.5v-83h83q12 0 20 -8.5t8 -19.5 v-56zM611 139q0 -12 -8 -20t-20 -8h-55q-12 0 -20 8t-8 20v278q0 11 8 19t20 8h55q12 0 20 -8t8 -19v-278zM500 28q0 -12 -8 -20t-20 -8h-278q-11 0 -19 8t-8 20v55q0 12 8 20t19 8h278q12 0 20 -8t8 -20v-55zM167 139q0 -12 -8.5 -20t-19.5 -8h-56q-11 0 -19 8t-8 20v278 q0 11 8 19t19 8h56q11 0 19.5 -8t8.5 -19v-278z" glyph-name="ograve" unicode="ò"/>
<glyph d="M500 694q0 -11 -8 -19t-20 -8h-55q-12 0 -20 8t-8 19v56q0 12 8 20t20 8h55q12 0 20 -8t8 -20v-56zM500 472q0 -11 -8 -19.5t-20 -8.5h-278q-11 0 -19 8.5t-8 19.5v56q0 11 8 19.5t19 8.5h84v83q0 11 8 19.5t20 8.5h55q12 0 20 -8.5t8 -19.5v-83h83q12 0 20 -8.5t8 -19.5 v-56zM611 139q0 -12 -8 -20t-20 -8h-55q-12 0 -20 8t-8 20v278q0 11 8 19t20 8h55q12 0 20 -8t8 -19v-278zM500 28q0 -12 -8 -20t-20 -8h-278q-11 0 -19 8t-8 20v55q0 12 8 20t19 8h278q12 0 20 -8t8 -20v-55zM167 139q0 -12 -8.5 -20t-19.5 -8h-56q-11 0 -19 8t-8 20v278 q0 11 8 19t19 8h56q11 0 19.5 -8t8.5 -19v-278z" glyph-name="oacute" unicode="ó"/>
<glyph d="M389 694q0 -11 -8 -19t-20 -8h-55q-12 0 -20 8t-8 19v56q0 11 8 19.5t20 8.5h55q12 0 20 -8.5t8 -19.5v-56zM500 472q0 -11 -8 -19.5t-20 -8.5h-278q-11 0 -19 8.5t-8 19.5v167q0 11 8 19.5t19 8.5h56q11 0 19.5 -8.5t8.5 -19.5v-83h111v83q0 11 8 19.5t20 8.5h55 q12 0 20 -8.5t8 -19.5v-167zM611 139q0 -12 -8 -20t-20 -8h-55q-12 0 -20 8t-8 20v278q0 11 8 19t20 8h55q12 0 20 -8t8 -19v-278zM500 28q0 -12 -8 -20t-20 -8h-278q-11 0 -19 8t-8 20v55q0 12 8 20t19 8h278q12 0 20 -8t8 -20v-55zM167 139q0 -12 -8.5 -20t-19.5 -8h-56 q-11 0 -19 8t-8 20v278q0 11 8 19t19 8h56q11 0 19.5 -8t8.5 -19v-278z" glyph-name="ocircumflex" unicode="ô"/>
<glyph d="M611 583q0 -11 -8 -19t-20 -8h-55q-12 0 -20 8t-8 19v56q0 11 8 19.5t20 8.5h55q12 0 20 -8.5t8 -19.5v-56zM278 694q0 -11 -8 -19t-20 -8h-56q-11 0 -19 8t-8 19v56q0 12 8 20t19 8h56q12 0 20 -8t8 -20v-56zM500 472q0 -11 -8 -19.5t-20 -8.5h-278q-11 0 -19 8.5 t-8 19.5v56q0 11 8 19.5t19 8.5h84v83q0 11 8 19.5t20 8.5h55q12 0 20 -8.5t8 -19.5v-83h83q12 0 20 -8.5t8 -19.5v-56zM611 139q0 -12 -8 -20t-20 -8h-55q-12 0 -20 8t-8 20v278q0 11 8 19t20 8h55q12 0 20 -8t8 -19v-278zM167 583q0 -11 -8.5 -19t-19.5 -8h-56 q-11 0 -19 8t-8 19v56q0 11 8 19.5t19 8.5h56q11 0 19.5 -8.5t8.5 -19.5v-56zM500 28q0 -12 -8 -20t-20 -8h-278q-11 0 -19 8t-8 20v55q0 12 8 20t19 8h278q12 0 20 -8t8 -20v-55zM167 139q0 -12 -8.5 -20t-19.5 -8h-56q-11 0 -19 8t-8 20v278q0 11 8 19t19 8h56 q11 0 19.5 -8t8.5 -19v-278z" glyph-name="otilde" unicode="õ"/>
<glyph d="M500 694q0 -11 -8 -19t-20 -8h-55q-12 0 -20 8t-8 19v56q0 12 8 20t20 8h55q12 0 20 -8t8 -20v-56zM278 694q0 -11 -8 -19t-20 -8h-56q-11 0 -19 8t-8 19v56q0 12 8 20t19 8h56q12 0 20 -8t8 -20v-56zM611 139q0 -12 -8 -20t-20 -8h-55q-12 0 -20 8t-8 20v278q0 11 8 19 t20 8h55q12 0 20 -8t8 -19v-278zM500 472q0 -11 -8 -19.5t-20 -8.5h-278q-11 0 -19 8.5t-8 19.5v56q0 11 8 19.5t19 8.5h278q12 0 20 -8.5t8 -19.5v-56zM500 28q0 -12 -8 -20t-20 -8h-278q-11 0 -19 8t-8 20v55q0 12 8 20t19 8h278q12 0 20 -8t8 -20v-55zM167 139 q0 -12 -8.5 -20t-19.5 -8h-56q-11 0 -19 8t-8 20v278q0 11 8 19t19 8h56q11 0 19.5 -8t8.5 -19v-278z" glyph-name="odieresis" unicode="ö"/>
<glyph d="M389 583q0 -11 -8 -19t-20 -8h-55q-12 0 -20 8t-8 19v56q0 11 8 19.5t20 8.5h55q12 0 20 -8.5t8 -19.5v-56zM611 361q0 -11 -8 -19.5t-20 -8.5h-500q-11 0 -19 8.5t-8 19.5v56q0 11 8 19t19 8h500q12 0 20 -8t8 -19v-56zM389 139q0 -12 -8 -20t-20 -8h-55q-12 0 -20 8 t-8 20v55q0 12 8 20t20 8h55q12 0 20 -8t8 -20v-55z" glyph-name="divide" unicode="÷"/>
<glyph d="M611 139q0 -12 -8 -20t-20 -8h-55q-12 0 -20 8t-8 20v194h-83q-12 0 -20 8.5t-8 19.5v83h-195q-11 0 -19 8.5t-8 19.5v56q0 11 8 19.5t19 8.5h278q12 0 20 -8.5t8 -19.5v-56q0 -11 8 -19.5t20 -8.5h55q12 0 20 -8t8 -19v-278zM389 250q0 -12 -8 -20t-20 -8h-55 q-12 0 -20 8t-8 20v56q0 11 8 19t20 8h55q12 0 20 -8t8 -19v-56zM500 28q0 -12 -8 -20t-20 -8h-278q-11 0 -19 8t-8 20v55q0 12 -8.5 20t-19.5 8h-56q-11 0 -19 8t-8 20v278q0 11 8 19t19 8h56q11 0 19.5 -8t8.5 -19v-195h83q12 0 20 -8t8 -20v-83h194q12 0 20 -8t8 -20v-55 z" glyph-name="oslash" unicode="ø"/>
<glyph d="M278 694q0 -11 -8 -19t-20 -8h-56q-11 0 -19 8t-8 19v56q0 12 8 20t19 8h56q12 0 20 -8t8 -20v-56zM389 583q0 -11 -8 -19t-20 -8h-55q-12 0 -20 8t-8 19v56q0 11 8 19.5t20 8.5h55q12 0 20 -8.5t8 -19.5v-56zM611 28q0 -12 -8 -20t-20 -8h-389q-11 0 -19 8t-8 20v55 q0 12 8 20t19 8h306v417q0 11 8 19.5t20 8.5h55q12 0 20 -8.5t8 -19.5v-500zM167 139q0 -12 -8.5 -20t-19.5 -8h-56q-11 0 -19 8t-8 20v389q0 11 8 19.5t19 8.5h56q11 0 19.5 -8.5t8.5 -19.5v-389z" glyph-name="ugrave" unicode="ù"/>
<glyph d="M500 694q0 -11 -8 -19t-20 -8h-55q-12 0 -20 8t-8 19v56q0 12 8 20t20 8h55q12 0 20 -8t8 -20v-56zM389 583q0 -11 -8 -19t-20 -8h-55q-12 0 -20 8t-8 19v56q0 11 8 19.5t20 8.5h55q12 0 20 -8.5t8 -19.5v-56zM611 28q0 -12 -8 -20t-20 -8h-389q-11 0 -19 8t-8 20v55 q0 12 8 20t19 8h306v417q0 11 8 19.5t20 8.5h55q12 0 20 -8.5t8 -19.5v-500zM167 139q0 -12 -8.5 -20t-19.5 -8h-56q-11 0 -19 8t-8 20v389q0 11 8 19.5t19 8.5h56q11 0 19.5 -8.5t8.5 -19.5v-389z" glyph-name="uacute" unicode="ú"/>
<glyph d="M389 694q0 -11 -8 -19t-20 -8h-55q-12 0 -20 8t-8 19v56q0 12 8 20t20 8h55q12 0 20 -8t8 -20v-56zM500 583q0 -11 -8 -19t-20 -8h-55q-12 0 -20 8t-8 19v56q0 11 8 19.5t20 8.5h55q12 0 20 -8.5t8 -19.5v-56zM278 583q0 -11 -8 -19t-20 -8h-56q-11 0 -19 8t-8 19v56 q0 11 8 19.5t19 8.5h56q12 0 20 -8.5t8 -19.5v-56zM611 28q0 -12 -8 -20t-20 -8h-389q-11 0 -19 8t-8 20v55q0 12 8 20t19 8h306v417q0 11 8 19.5t20 8.5h55q12 0 20 -8.5t8 -19.5v-500zM167 139q0 -12 -8.5 -20t-19.5 -8h-56q-11 0 -19 8t-8 20v389q0 11 8 19.5t19 8.5h56 q11 0 19.5 -8.5t8.5 -19.5v-389z" glyph-name="ucircumflex" unicode="û"/>
<glyph d="M500 694q0 -11 -8 -19t-20 -8h-55q-12 0 -20 8t-8 19v56q0 12 8 20t20 8h55q12 0 20 -8t8 -20v-56zM278 694q0 -11 -8 -19t-20 -8h-56q-11 0 -19 8t-8 19v56q0 12 8 20t19 8h56q12 0 20 -8t8 -20v-56zM611 28q0 -12 -8 -20t-20 -8h-389q-11 0 -19 8t-8 20v55q0 12 8 20 t19 8h306v417q0 11 8 19.5t20 8.5h55q12 0 20 -8.5t8 -19.5v-500zM167 139q0 -12 -8.5 -20t-19.5 -8h-56q-11 0 -19 8t-8 20v389q0 11 8 19.5t19 8.5h56q11 0 19.5 -8.5t8.5 -19.5v-389z" glyph-name="udieresis" unicode="ü"/>
<glyph d="M500 694q0 -11 -8 -19t-20 -8h-55q-12 0 -20 8t-8 19v56q0 12 8 20t20 8h55q12 0 20 -8t8 -20v-56zM389 583q0 -11 -8 -19t-20 -8h-55q-12 0 -20 8t-8 19v56q0 11 8 19.5t20 8.5h55q12 0 20 -8.5t8 -19.5v-56zM611 -83q0 -12 -8 -20t-20 -8h-55q-12 0 -20 8t-8 20v83 h-306q-11 0 -19 8t-8 20v55q0 12 8 20t19 8h306v417q0 11 8 19.5t20 8.5h55q12 0 20 -8.5t8 -19.5v-611zM167 139q0 -12 -8.5 -20t-19.5 -8h-56q-11 0 -19 8t-8 20v389q0 11 8 19.5t19 8.5h56q11 0 19.5 -8.5t8.5 -19.5v-389zM500 -194q0 -12 -8 -20t-20 -8h-389 q-11 0 -19 8t-8 20v55q0 12 8 20t19 8h389q12 0 20 -8t8 -20v-55z" glyph-name="yacute" unicode="ý"/>
<glyph d="M611 139q0 -12 -8 -20t-20 -8h-55q-12 0 -20 8t-8 20v278q0 11 8 19t20 8h55q12 0 20 -8t8 -19v-278zM500 28q0 -12 -8 -20t-20 -8h-305v-194q0 -12 -8.5 -20t-19.5 -8h-56q-11 0 -19 8t-8 20v944q0 11 8 19.5t19 8.5h56q11 0 19.5 -8.5t8.5 -19.5v-194h305q12 0 20 -8.5 t8 -19.5v-56q0 -11 -8 -19.5t-20 -8.5h-305v-333h305q12 0 20 -8t8 -20v-55z" glyph-name="thorn" unicode="þ"/>
</font>
</defs>
</svg>
