<?xml version="1.0" standalone="no"?>
<!DOCTYPE svg PUBLIC "-//W3C//DTD SVG 20010904//EN"
 "http://www.w3.org/TR/2001/REC-SVG-20010904/DTD/svg10.dtd">
<svg version="1.0" xmlns="http://www.w3.org/2000/svg"
 width="512.000000pt" height="512.000000pt" viewBox="0 0 512.000000 512.000000"
 preserveAspectRatio="xMidYMid meet">
<metadata>
Created by potrace 1.11, written by Peter Selinger 2001-2013
</metadata>
<g transform="translate(0.000000,512.000000) scale(0.100000,-0.100000)"
fill="#000000" stroke="none">
<path d="M2240 4960 l0 -160 -320 0 -320 0 0 -800 0 -800 159 0 159 0 1 -641
0 -640 -97 1 c-53 1 -125 1 -159 1 l-63 -1 0 -161 0 -160 -62 1 c-35 1 -107 1
-160 1 l-98 -1 0 -161 0 -160 -112 1 c-62 1 -134 1 -160 1 l-48 -1 0 -160 0
-160 -160 0 -160 0 -1 -177 c-1 -98 -1 -242 -1 -321 l-1 -142 -158 0 c-99 0
-159 -4 -160 -10 0 -5 -1 -76 -2 -157 l0 -148 2081 -3 2082 -2 0 160 0 160
-112 1 c-62 0 -134 0 -160 -1 l-48 -1 0 320 0 321 -92 1 c-51 0 -123 0 -160
-1 l-68 -1 0 160 0 161 -62 1 c-35 0 -107 0 -160 -1 l-98 -1 0 160 0 161 -92
1 c-51 0 -123 0 -160 -1 l-68 -1 0 160 0 161 -160 0 -160 0 0 160 0 160 160 0
160 0 0 1280 0 1280 160 0 160 0 0 160 0 160 -640 0 -640 0 0 -160z"/>
</g>
</svg>
